<?xml version="1.0" encoding="utf-8"?>
<!-- Generator: Adobe Illustrator 27.2.0, SVG Export Plug-In . SVG Version: 6.00 Build 0)  -->
<svg version="1.1" id="Calque_1" xmlns="http://www.w3.org/2000/svg" xmlns:xlink="http://www.w3.org/1999/xlink" x="0px" y="0px"
	 viewBox="0 0 700 700" style="enable-background:new 0 0 700 700;" xml:space="preserve">
<g>
	<path d="M113,28c-4.4,0.2-8.6,2.2-11.6,5.5c-3,3.3-4.5,7.7-4.3,12.1c0.2,4.5,2.2,8.6,5.5,11.6c3.3,3,7.7,4.5,12.1,4.3h279.5
		c4.5,0.1,8.8-1.7,12-4.8s5-7.5,5-12c0-4.5-1.8-8.8-5-12c-3.2-3.2-7.5-4.9-12-4.8H114.8C114.2,28,113.6,28,113,28L113,28z M113,95.2
		L113,95.2c-4.4,0.2-8.6,2.2-11.6,5.5c-3,3.3-4.5,7.7-4.3,12.1c0.2,4.5,2.2,8.6,5.5,11.6c3.3,3,7.7,4.5,12.1,4.3h167.7
		c4.5,0.1,8.8-1.7,12-4.8c3.2-3.2,5-7.5,5-12c0-4.5-1.8-8.8-5-12c-3.2-3.2-7.5-4.9-12-4.8H114.8C114.2,95.2,113.6,95.2,113,95.2
		L113,95.2z M359,95.2L359,95.2c-1.6,0.2-3.2,0.6-4.7,1.2c-0.1,0-0.1,0-0.2,0c-24.4,3.4-43.7,23.9-43.7,49.2v173.6
		c0,0-0.1,9.6-2.3,18.2c-1.1,4.3-2.8,8.1-3.8,9.4c-0.1,0.2-0.1,0.2-0.2,0.3c-6.8-0.3-10.7-4.3-21.7-13.1
		c-11.3-9.1-29.3-20.5-55.9-20.5c-12.1,0-29.9-0.3-46.8,4c-8.4,2.2-16.9,5.5-24.3,12.1c-7.4,6.6-12.8,17.4-12.8,28.7
		c0,5.6,0.9,18.5,9.8,28.5c8.9,10,22.3,17.4,45.8,26.2c23.2,8.7,41.7,34.9,65.2,62.5c23.4,27.6,54.6,56.3,102.9,56.3h173.3
		c1.4,0,2.8-0.2,4.2-0.5c0.2-0.1,0.5-0.1,0.7-0.2c0.3-0.1,0.6-0.2,0.9-0.3c0.2-0.1,0.5-0.1,0.7-0.2c0.8-0.3,1.5-0.8,2.3-1.2
		c0.2-0.1,0.4-0.2,0.5-0.3c0.1,0,0.3-0.1,0.3-0.2c1.1-0.4,2.8-0.8,5.1-1.6c5-1.7,12.1-4.4,19.2-9.3c14.3-9.7,27.6-29.6,27.6-59.5
		V336c0-13.2-5.6-25.1-14.3-34.3c-8.7-9.2-21.4-16.1-36-16.1c-3.3,0-5.6,0.8-8.2,1.4c-2.2-7.9-5.7-15.1-11.5-19.9
		c-9.5-7.9-21.1-9.2-30.7-8.8c-10.3,0.5-19.7,2.8-27.8,5.4c-8.2-16.7-25-28.5-44.7-28.5c-6.3,0-11.8,1.4-16.8,3.3v-91.9
		c0-0.3,0-0.7,0-1c0.1-2.5-0.4-4.9-1.4-7.2c-3.6-24.2-23.9-43.2-48.9-43.2h0C360.1,95.2,359.6,95.2,359,95.2L359,95.2z M360.7,128.8
		c9.6,0,16.8,7.2,16.8,16.8v0c0,0.5,0,1.1,0,1.6v127.2v0c0,4.7,1.9,9.1,5.4,12.3c3.4,3.2,8,4.8,12.7,4.4c4.7-0.3,8.9-2.6,11.9-6.3
		c6.8-8.5,13.5-16.1,20.4-16.1c9.6,0,16.8,7.2,16.8,16.8c0,5.4,2.6,10.4,7,13.6c4.4,3.2,10,4,15.1,2.3c10-3.3,25.5-9.3,35.5-9.8
		c5-0.2,7.1,0.9,7.5,1.2c0.4,0.4,2.1,1.4,2.1,9.4c0,2.8,0.3,5.9,1.9,9.8c1.7,3.9,5.6,8.4,10.1,10.3c9,3.9,13.8,1.1,16.9,0
		c6.3-2.1,10.1-3.3,10.1-3.3c4,0,8.1,2,11.5,5.6c3.4,3.6,5.2,8.6,5.2,11.2v122.7c0,21.3-6.2,27.1-12.9,31.7c-3.3,2.3-7.1,3.9-11,5.2
		c-2,0.7-3.9,1.1-6.1,1.9c-0.4,0.1-1.2,0.7-1.6,0.9H366.3c-35.6,0-55.5-18.9-77.2-44.4c-21.7-25.6-42.3-58.3-79-72.1
		c-21.2-8-30.2-14.5-32.5-17.1c-2.3-2.6-1.4-0.7-1.4-6.3c0-2.7,0-2.4,1.4-3.7s5.2-3.2,10.5-4.6c10.6-2.7,26.3-3,38.4-3
		c18.2,0,25.3,5.4,34.9,13.1c9.6,7.7,22.6,20.5,43.3,20.5c11.2,0,21.1-6.8,26.4-13.8c5.3-7.1,7.7-14.5,9.4-21.3
		c3.4-13.8,3.3-26.4,3.3-26.4V145.6C344,136,351.2,128.8,360.7,128.8L360.7,128.8z M113,162.4c-4.4,0.2-8.6,2.2-11.6,5.5
		c-3,3.3-4.5,7.7-4.3,12.1c0.2,4.5,2.2,8.6,5.5,11.6c3.3,3,7.7,4.5,12.1,4.3h167.7c4.5,0.1,8.8-1.7,12-4.8c3.2-3.2,5-7.5,5-12
		s-1.8-8.8-5-12c-3.2-3.2-7.5-4.9-12-4.8H114.8C114.2,162.4,113.6,162.4,113,162.4L113,162.4z M113,229.6L113,229.6
		c-4.4,0.2-8.6,2.2-11.6,5.5c-3,3.3-4.5,7.7-4.3,12.1c0.2,4.5,2.2,8.6,5.5,11.6c3.3,3,7.7,4.5,12.1,4.3h167.7
		c4.5,0.1,8.8-1.7,12-4.8c3.2-3.2,5-7.5,5-12c0-4.5-1.8-8.8-5-12c-3.2-3.2-7.5-4.9-12-4.8H114.8C114.2,229.6,113.6,229.6,113,229.6
		L113,229.6z"/>
	<g>
		<defs>
			<polyline id="SVGID_1_" points="855.6,644 855.6,1344 155.6,1344 			"/>
		</defs>
		<clipPath id="SVGID_00000150082117711090640670000002568179772599044755_">
			<use xlink:href="#SVGID_1_"  style="overflow:visible;"/>
		</clipPath>
	</g>
	<g>
		<defs>
			<polyline id="SVGID_00000121982595657866292550000004464017405843574432_" points="1012.9,644 1012.9,1344 312.9,1344 			"/>
		</defs>
		<clipPath id="SVGID_00000008865256257400499950000014005225326130249109_">
			<use xlink:href="#SVGID_00000121982595657866292550000004464017405843574432_"  style="overflow:visible;"/>
		</clipPath>
	</g>
	<g>
		<defs>
			<polyline id="SVGID_00000036960053744792817740000000646247520580604075_" points="1026.7,644 1026.7,1344 326.7,1344 			"/>
		</defs>
		<clipPath id="SVGID_00000034075715898178648350000013584153734058131591_">
			<use xlink:href="#SVGID_00000036960053744792817740000000646247520580604075_"  style="overflow:visible;"/>
		</clipPath>
	</g>
	<g>
		<defs>
			<polyline id="SVGID_00000078767943035572301820000007694097739087487648_" points="1081.6,644 1081.6,1344 381.6,1344 			"/>
		</defs>
		<clipPath id="SVGID_00000068675818271900580820000005106845730855257016_">
			<use xlink:href="#SVGID_00000078767943035572301820000007694097739087487648_"  style="overflow:visible;"/>
		</clipPath>
	</g>
	<g>
		<defs>
			<polyline id="SVGID_00000073711195590515980510000004133802221080767933_" points="1119.1,644 1119.1,1344 419.1,1344 			"/>
		</defs>
		<clipPath id="SVGID_00000093887238386737626990000008995054419516473475_">
			<use xlink:href="#SVGID_00000073711195590515980510000004133802221080767933_"  style="overflow:visible;"/>
		</clipPath>
	</g>
	<g>
		<defs>
			<polyline id="SVGID_00000181063780542676684640000015893093236957164426_" points="1128.7,644 1128.7,1344 428.7,1344 			"/>
		</defs>
		<clipPath id="SVGID_00000052783074682478861660000007441491840762406831_">
			<use xlink:href="#SVGID_00000181063780542676684640000015893093236957164426_"  style="overflow:visible;"/>
		</clipPath>
	</g>
	<g>
		<defs>
			<polyline id="SVGID_00000001632118764152457810000009502707472245663616_" points="782.2,672 782.2,1372 82.2,1372 			"/>
		</defs>
		<clipPath id="SVGID_00000062153015366682115240000009093133791822424192_">
			<use xlink:href="#SVGID_00000001632118764152457810000009502707472245663616_"  style="overflow:visible;"/>
		</clipPath>
	</g>
	<g>
		<defs>
			<polyline id="SVGID_00000131337094014104206090000013121648959584453784_" points="815.2,672 815.2,1372 115.2,1372 			"/>
		</defs>
		<clipPath id="SVGID_00000151527612670814972970000005980097190318359699_">
			<use xlink:href="#SVGID_00000131337094014104206090000013121648959584453784_"  style="overflow:visible;"/>
		</clipPath>
	</g>
	<g>
		<defs>
			<polyline id="SVGID_00000070805373751500737290000005306578547725701050_" points="854.2,672 854.2,1372 154.2,1372 			"/>
		</defs>
		<clipPath id="SVGID_00000154387413247947932180000006400753609088291977_">
			<use xlink:href="#SVGID_00000070805373751500737290000005306578547725701050_"  style="overflow:visible;"/>
		</clipPath>
	</g>
	<g>
		<defs>
			<polyline id="SVGID_00000047747367360769180570000013270309498283041427_" points="867.5,672 867.5,1372 167.5,1372 			"/>
		</defs>
		<clipPath id="SVGID_00000161611742063932162120000003512189942914952342_">
			<use xlink:href="#SVGID_00000047747367360769180570000013270309498283041427_"  style="overflow:visible;"/>
		</clipPath>
	</g>
	<g>
		<defs>
			<polyline id="SVGID_00000178916567580428892370000008934437082974097829_" points="887.5,672 887.5,1372 187.5,1372 			"/>
		</defs>
		<clipPath id="SVGID_00000170983326389135670380000015679739103044013463_">
			<use xlink:href="#SVGID_00000178916567580428892370000008934437082974097829_"  style="overflow:visible;"/>
		</clipPath>
	</g>
	<g>
		<defs>
			<polyline id="SVGID_00000018204467391686573700000001111184481324215476_" points="939.6,672 939.6,1372 239.6,1372 			"/>
		</defs>
		<clipPath id="SVGID_00000034077732178479623260000016825874663572966332_">
			<use xlink:href="#SVGID_00000018204467391686573700000001111184481324215476_"  style="overflow:visible;"/>
		</clipPath>
	</g>
	<g>
		<defs>
			<polyline id="SVGID_00000044859213050154661030000000917569447307728014_" points="1029,672 1029,1372 329,1372 			"/>
		</defs>
		<clipPath id="SVGID_00000041258193863915804680000001881388437494198180_">
			<use xlink:href="#SVGID_00000044859213050154661030000000917569447307728014_"  style="overflow:visible;"/>
		</clipPath>
	</g>
	<g>
		<defs>
			<polyline id="SVGID_00000149361347351464846010000015656077112099898287_" points="1042.8,672 1042.8,1372 342.8,1372 			"/>
		</defs>
		<clipPath id="SVGID_00000045600706251209196880000004202388956349030047_">
			<use xlink:href="#SVGID_00000149361347351464846010000015656077112099898287_"  style="overflow:visible;"/>
		</clipPath>
	</g>
	<g>
		<defs>
			<polyline id="SVGID_00000088844620732749193560000000821369375101327287_" points="1071.7,672 1071.7,1372 371.7,1372 			"/>
		</defs>
		<clipPath id="SVGID_00000023260261887684334160000006885948114984909732_">
			<use xlink:href="#SVGID_00000088844620732749193560000000821369375101327287_"  style="overflow:visible;"/>
		</clipPath>
	</g>
	<g>
		<defs>
			<polyline id="SVGID_00000121256508462670288630000017983960063799651720_" points="1107.2,672 1107.2,1372 407.2,1372 			"/>
		</defs>
		<clipPath id="SVGID_00000133523070500326225470000013625516737598912656_">
			<use xlink:href="#SVGID_00000121256508462670288630000017983960063799651720_"  style="overflow:visible;"/>
		</clipPath>
	</g>
</g>
</svg>
