<?xml version="1.0" encoding="UTF-8"?>
<svg width="700pt" height="700pt" version="1.1" viewBox="0 0 700 700" xmlns="http://www.w3.org/2000/svg">
 <path d="m266.57 67.094c5.4648-5.4297 14.305-5.4102 19.738 0.054688 5.4297 5.4648 5.4102 14.305-0.054688 19.738l-11.258 11.258 11.258 11.25c5.4648 5.4297 5.4844 14.273 0.054688 19.738-5.4297 5.4648-14.273 5.4844-19.738 0.054688l-11.316-11.309-11.316 11.309c-5.4648 5.4297-14.305 5.4102-19.738-0.054688-5.4297-5.4648-5.4102-14.305 0.054687-19.738l11.258-11.25-11.258-11.258c-5.4648-5.4297-5.4844-14.273-0.054687-19.738 5.4297-5.4648 14.273-5.4844 19.738-0.054688l11.316 11.309zm-78.969-53.098h324.78c9.6445 0 18.414 3.9492 24.75 10.285 6.3359 6.3359 10.285 15.105 10.285 24.75v461.94c0 9.6445-3.9492 18.414-10.285 24.75-6.3359 6.3359-15.105 10.285-24.75 10.285h-324.78c-9.6445 0-18.414-3.9492-24.75-10.285-6.3359-6.3359-10.285-15.105-10.285-24.75v-461.94c0-9.6445 3.9492-18.414 10.285-24.75 6.3359-6.3359 15.105-10.285 24.75-10.285zm324.78 28.004h-324.78c-1.9258 0-3.6914 0.80078-4.9609 2.0703-1.2695 1.2695-2.0703 3.0352-2.0703 4.9609v461.94c0 1.9258 0.80078 3.6914 2.0703 4.9609 1.2695 1.2695 3.0352 2.0703 4.9609 2.0703h324.78c1.9258 0 3.6914-0.80078 4.9609-2.0703 1.2695-1.2695 2.0703-3.0352 2.0703-4.9609v-461.94c0-1.9258-0.80078-3.6914-2.0703-4.9609-1.2695-1.2695-3.0352-2.0703-4.9609-2.0703zm-37.285 145.98c5.4297 5.4648 5.4102 14.305-0.054687 19.738-5.457 5.4219-14.293 5.4102-19.723-0.039062v29.016c0 16.918-6.7852 32.375-17.766 43.766-11.324 12.363-28.773 19.426-45.434 19.426-17.391 0-33.195-7.1172-44.641-18.559-11.438-11.496-18.559-27.297-18.559-44.633v-34.684c0-9.2266-3.9766-17.602-10.227-23.684-6.5-6.3359-15.438-10.258-24.969-10.258-9.6641 0-18.469 3.9688-24.844 10.344s-10.344 15.188-10.344 24.852v168.35c0 7.7305-6.2695 14.004-14.004 14.004-7.7305 0-14.004-6.2695-14.004-14.004v-168.35c0-17.383 7.1172-33.195 18.559-44.641 11.441-11.441 27.25-18.559 44.633-18.559 16.973 0 32.871 6.9766 44.441 18.25 11.477 11.172 18.758 26.598 18.758 43.699v34.684c0 9.7031 3.9492 18.508 10.293 24.844 6.4297 6.375 15.234 10.344 24.902 10.344 9.6719 0 18.473-3.9688 24.852-10.344 6.6211-6.2109 10.344-15.84 10.344-24.844v-31.828l-3.9219 3.4531c-5.793 5.0977-14.637 4.5391-19.738-1.2578-5.0977-5.793-4.5391-14.637 1.2578-19.738l26.648-23.441c2.5195-2.4453 5.9648-3.9609 9.7578-3.9609 4.2812 0 8.1172 1.918 10.684 4.9492l23.098 23.109zm-144.27 251.9c-5.4648-5.4297-5.4844-14.273-0.054687-19.738 5.4297-5.4648 14.273-5.4844 19.738-0.054688l11.316 11.309 11.316-11.309c5.4648-5.4297 14.305-5.4102 19.738 0.054688 5.4297 5.4648 5.4102 14.305-0.054687 19.738l-11.258 11.258 11.258 11.25c5.4648 5.4297 5.4844 14.273 0.054687 19.738-5.4297 5.4648-14.273 5.4844-19.738 0.054688l-11.316-11.309-11.316 11.309c-5.4648 5.4297-14.305 5.4102-19.738-0.054688-5.4297-5.4648-5.4102-14.305 0.054687-19.738l11.258-11.25zm94.773-93.531c-5.4648-5.4297-5.4844-14.273-0.054687-19.738 5.4297-5.4648 14.273-5.4844 19.738-0.054688l11.316 11.309 11.316-11.309c5.4648-5.4297 14.305-5.4102 19.738 0.054688 5.4297 5.4648 5.4102 14.305-0.054688 19.738l-11.258 11.258 11.258 11.25c5.4648 5.4297 5.4844 14.273 0.054688 19.738-5.4297 5.4648-14.273 5.4844-19.738 0.054688l-11.316-11.309-11.316 11.309c-5.4648 5.4297-14.305 5.4102-19.738-0.054688-5.4297-5.4648-5.4102-14.305 0.054687-19.738l11.258-11.25zm-181.06 58.906c12.66 0 24.129 5.1445 32.43 13.445 8.6172 9.4375 13.445 19.418 13.445 32.438 0 12.66-5.1445 24.129-13.445 32.43-9.4375 8.6172-19.414 13.445-32.43 13.445-12.66 0-24.137-5.1406-32.438-13.441-8.625-9.4531-13.441-19.406-13.441-32.438 0-12.66 5.1406-24.137 13.441-32.438 9.4375-8.6172 19.418-13.445 32.438-13.445zm12.641 33.238c-3.2227-3.2227-7.6992-5.2305-12.641-5.2305-4.7031 0-8.9609 1.7734-12.117 4.668-3.6719 3.9023-5.7539 7.6875-5.7539 13.207 0 4.6953 1.7852 8.9609 4.6914 12.137 3.8555 3.6641 7.7109 5.7344 13.184 5.7344 4.6953 0 8.957-1.7734 12.109-4.668 3.6719-3.9023 5.7617-7.6797 5.7617-13.203 0-4.6562-1.8125-9.4258-5.2305-12.645zm156.61-323.63c-5.4961-5.4023-5.5703-14.246-0.16406-19.742 5.4023-5.4961 14.246-5.5703 19.742-0.16406l9.4727 9.332 34.27-36.816c5.25-5.6406 14.102-5.9609 19.742-0.70703 5.6406 5.25 5.9609 14.102 0.70703 19.742l-44.328 47.602c-5.4023 5.4961-14.246 5.5703-19.742 0.16406l-19.695-19.414z"/>
</svg>
