<?xml version="1.0" encoding="utf-8"?>
<!-- Generator: Adobe Illustrator 27.2.0, SVG Export Plug-In . SVG Version: 6.00 Build 0)  -->
<svg version="1.1" id="Calque_1" xmlns="http://www.w3.org/2000/svg" xmlns:xlink="http://www.w3.org/1999/xlink" x="0px" y="0px"
	 viewBox="0 0 700 700" style="enable-background:new 0 0 700 700;" xml:space="preserve">
<g>
	<path d="M314.7,212.2h1.3c3.1,8.1,10.9,14,20,14c11.8,0,21.5-9.6,21.5-21.5c0-3.6,3-6.6,6.6-6.6c3.6,0,6.6,3,6.6,6.6
		s-3,6.6-6.6,6.6c-4.1,0-7.5,3.3-7.5,7.5s3.3,7.5,7.5,7.5c9.2,0,17-5.9,20-14h1.3c4.1,0,7.5-3.3,7.5-7.5s-3.3-7.5-7.5-7.5h-1.3
		c-3.1-8.1-10.9-14-20-14c-11.8,0-21.5,9.6-21.5,21.5c0,3.6-3,6.6-6.6,6.6s-6.6-3-6.6-6.6s3-6.6,6.6-6.6c4.1,0,7.5-3.3,7.5-7.5
		s-3.3-7.5-7.5-7.5c-9.2,0-17,5.9-20,14h-1.3c-4.1,0-7.5,3.3-7.5,7.5S310.6,212.2,314.7,212.2z"/>
	<path d="M350,309.6c12,0,21.8-9.8,21.8-21.8S362,266,350,266s-21.8,9.8-21.8,21.8S338,309.6,350,309.6z M350,280.8c3.8,0,7,3.1,7,7
		s-3.1,7-7,7s-7-3.1-7-7S346.2,280.8,350,280.8z"/>
	<path d="M617.1,431.2c-4.3-7.5-12.1-11.9-20.7-11.9h-8.1l0-311.9c0-22.9-18.7-41.6-41.6-41.6H153.3c-22.9,0-41.6,18.7-41.6,41.6
		v311.9h-8.1c-8.7,0-16.4,4.4-20.7,11.9c-4.4,7.4-4.5,16.4-0.3,23.8l14.8,26.7c4.2,7.6,12.3,12.4,21,12.4h463
		c8.7,0,16.8-4.8,21-12.4l14.8-26.7C621.6,447.6,621.5,438.6,617.1,431.2L617.1,431.2z M126.6,107.4c0-14.8,12-26.7,26.7-26.7h393.4
		c14.8,0,26.7,12,26.7,26.7v311.9H126.6L126.6,107.4z M604.5,447.8l-14.8,26.7c-1.6,3-4.8,4.8-8.1,4.8H118.4c-3.3,0-6.4-1.8-8.1-4.8
		l-14.8-26.7c-2.3-4.2-0.7-7.8,0.1-9.2c0.8-1.4,3.2-4.6,8-4.6h492.7c4.8,0,7.1,3.2,8,4.6C605.1,440,606.7,443.7,604.5,447.8
		L604.5,447.8z"/>
	<path d="M546.7,99.1H153.3c-4.6,0-8.3,3.7-8.3,8.3v286.1c0,4.1,3.3,7.5,7.5,7.5h395.1c4.1,0,7.5-3.3,7.5-7.5l0-286.1
		C555,102.8,551.3,99.1,546.7,99.1L546.7,99.1z M540.1,386.1H159.9V114h380.3V386.1z"/>
	<path d="M372.5,449.4h-45c-4.1,0-7.5,3.3-7.5,7.5s3.3,7.5,7.5,7.5h45c4.1,0,7.5-3.3,7.5-7.5C379.9,452.7,376.6,449.4,372.5,449.4z"
		/>
	<path d="M252.4,186.5h4.7v171.4c0,4.1,3.3,7.5,7.5,7.5h171c4.1,0,7.5-3.3,7.5-7.5V186.5h4.7c14.8,0,26.7-12,26.7-26.7
		s-12-26.7-26.7-26.7H252.4c-14.8,0-26.7,12-26.7,26.7C225.7,174.5,237.7,186.5,252.4,186.5L252.4,186.5z M459.5,159.8
		c0,6.5-5.3,11.9-11.9,11.9h-4.7V148h4.7C454.1,148,459.5,153.2,459.5,159.8z M300.7,168.1v-20.2h41.2
		C325.3,149.8,310.8,157.2,300.7,168.1L300.7,168.1z M350,162.2c27.2,0,49.3,19.1,49.3,42.5s-22.1,42.5-49.3,42.5
		s-49.3-19.1-49.3-42.5C300.7,181.3,322.9,162.2,350,162.2L350,162.2z M300.7,241.4c11.8,12.6,29.5,20.7,49.3,20.7
		s37.5-8.1,49.3-20.7v59.7c-10,2.6-17.9,10.6-20.6,20.6h-57.4c-2.6-10-10.6-17.9-20.6-20.6L300.7,241.4L300.7,241.4z M399.3,168.1
		c-10.1-10.9-24.7-18.3-41.1-20.2h41.1V168.1z M271.9,148h13.9v159.7c0,4.1,3.3,7.5,7.5,7.5c7.8,0,14.2,6.4,14.2,14.2
		c0,4.1,3.3,7.5,7.5,7.5h70.3c4.1,0,7.5-3.3,7.5-7.5c0-7.8,6.4-14.2,14.2-14.2c4.1,0,7.5-3.3,7.5-7.5l0-159.7h13.9v202.5l-156.4,0
		L271.9,148z M252.4,148h4.7v23.7h-4.7c-6.5,0-11.9-5.3-11.9-11.9C240.6,153.2,245.9,148,252.4,148z"/>
	<g>
		<defs>
			<polyline id="SVGID_1_" points="899.7,687.3 899.7,1387.3 199.7,1387.3 			"/>
		</defs>
		<clipPath id="SVGID_00000029762623900086694640000001175355141464430740_">
			<use xlink:href="#SVGID_1_"  style="overflow:visible;"/>
		</clipPath>
	</g>
	<g>
		<defs>
			<polyline id="SVGID_00000021834696391256241010000013175638889673970568_" points="1081.7,687.3 1081.7,1387.3 381.7,1387.3 			
				"/>
		</defs>
		<clipPath id="SVGID_00000033329233158687133900000010180511898100457891_">
			<use xlink:href="#SVGID_00000021834696391256241010000013175638889673970568_"  style="overflow:visible;"/>
		</clipPath>
	</g>
	<g>
		<defs>
			<polyline id="SVGID_00000157270751903158377880000012970398411806420623_" points="1225.6,687.3 1225.6,1387.3 525.6,1387.3 			
				"/>
		</defs>
		<clipPath id="SVGID_00000009559874894903972390000000069726053305160364_">
			<use xlink:href="#SVGID_00000157270751903158377880000012970398411806420623_"  style="overflow:visible;"/>
		</clipPath>
	</g>
	<g>
		<defs>
			<polyline id="SVGID_00000063609663346223663570000002013796110254441634_" points="1256.7,687.3 1256.7,1387.3 556.7,1387.3 			
				"/>
		</defs>
		<clipPath id="SVGID_00000147903373582885763720000003555247796128734901_">
			<use xlink:href="#SVGID_00000063609663346223663570000002013796110254441634_"  style="overflow:visible;"/>
		</clipPath>
	</g>
	<g>
		<defs>
			<polyline id="SVGID_00000078753577149039694830000008921262455483218577_" points="1271.2,687.3 1271.2,1387.3 571.2,1387.3 			
				"/>
		</defs>
		<clipPath id="SVGID_00000085252997578949861420000008358470619925013946_">
			<use xlink:href="#SVGID_00000078753577149039694830000008921262455483218577_"  style="overflow:visible;"/>
		</clipPath>
	</g>
	<g>
		<defs>
			<polyline id="SVGID_00000030453289236174208050000005479414063443028363_" points="1331.9,687.3 1331.9,1387.3 631.9,1387.3 			
				"/>
		</defs>
		<clipPath id="SVGID_00000009583958284826148970000009176413422935716480_">
			<use xlink:href="#SVGID_00000030453289236174208050000005479414063443028363_"  style="overflow:visible;"/>
		</clipPath>
	</g>
	<g>
		<defs>
			<polyline id="SVGID_00000029026308215249634240000008915231223545994935_" points="897.5,729.7 897.5,1429.7 197.5,1429.7 			"/>
		</defs>
		<clipPath id="SVGID_00000049215615740154954990000004243991324369609610_">
			<use xlink:href="#SVGID_00000029026308215249634240000008915231223545994935_"  style="overflow:visible;"/>
		</clipPath>
	</g>
	<g>
		<defs>
			<polyline id="SVGID_00000005261018410693536490000000323503816727757987_" points="1281,729.7 1281,1429.7 581,1429.7 			"/>
		</defs>
		<clipPath id="SVGID_00000118370735804442506780000001635869546650764961_">
			<use xlink:href="#SVGID_00000005261018410693536490000000323503816727757987_"  style="overflow:visible;"/>
		</clipPath>
	</g>
</g>
</svg>
