<?xml version="1.0" encoding="utf-8"?>
<!-- Generator: Adobe Illustrator 27.2.0, SVG Export Plug-In . SVG Version: 6.00 Build 0)  -->
<svg version="1.1" id="Calque_1" xmlns="http://www.w3.org/2000/svg" xmlns:xlink="http://www.w3.org/1999/xlink" x="0px" y="0px"
	 viewBox="0 100 700 700" style="enable-background:new 0 0 700 700;" xml:space="preserve">
<g>
	<path d="M603.7,190.8H402.5c0-0.1-0.1-0.2-0.1-0.3c0-0.9-0.2-1.8-0.5-2.7c-0.1-0.2-0.1-0.4-0.2-0.6c0-0.1-0.1-0.2-0.1-0.3l-35-70
		c-3-5.9-12.7-5.9-15.7,0l-35,70c-0.1,0.1-0.1,0.2-0.1,0.3c-0.1,0.2-0.1,0.4-0.2,0.6c-0.3,0.9-0.5,1.8-0.5,2.7
		c0,0.1-0.1,0.2-0.1,0.3v61.2h-8.8v-61.2c0-0.1-0.1-0.2-0.1-0.3c0-0.9-0.2-1.8-0.5-2.7c-0.1-0.2-0.1-0.4-0.2-0.6
		c0-0.1-0.1-0.2-0.1-0.3l-35-70c-3-5.9-12.7-5.9-15.7,0l-35,70c-0.1,0.1-0.1,0.2-0.1,0.3c-0.1,0.2-0.1,0.4-0.2,0.6
		c-0.3,0.9-0.5,1.8-0.5,2.7c0,0.1-0.1,0.2-0.1,0.3v61.2H210v-61.2c0-0.1-0.1-0.2-0.1-0.3c0-0.9-0.2-1.8-0.5-2.7
		c-0.1-0.2-0.1-0.4-0.2-0.6c0-0.1-0.1-0.2-0.1-0.3l-35-70c-3-5.9-12.7-5.9-15.7,0l-35,70c-0.1,0.1-0.1,0.2-0.1,0.3
		c-0.1,0.2-0.1,0.4-0.2,0.6c-0.3,0.9-0.5,1.8-0.5,2.7c0,0.1-0.1,0.2-0.1,0.3v61.2H96.2c-4.8,0-8.8,3.9-8.8,8.7v210
		c0,43.4,35.3,78.8,78.8,78.8h192.5c40.5,0,73.9-30.7,78.2-70h166.8c4.8,0,8.8-3.9,8.8-8.8V199.5
		C612.5,194.7,608.6,190.8,603.7,190.8L603.7,190.8z M332.5,388v16.4c0,6.3-2.7,12.4-7.5,16.6l-62.5,55.6l-62.6-55.7
		c-4.7-4.2-7.4-10.2-7.4-16.5V388c0-5.9,2.3-11.5,6.5-15.7c4.2-4.2,9.8-6.5,15.7-6.5c5.9,0,11.5,2.3,15.7,6.5l25.9,25.9
		c3.4,3.4,9,3.4,12.4,0l25.9-25.9c8.4-8.4,22.9-8.4,31.4,0C330.2,376.6,332.5,382.1,332.5,388L332.5,388z M595,392.1h-18.3
		c-18.9,0-34.2-15.3-34.2-34.2c0-3.8,1.5-7.4,4.2-10.1l5-5c11.4-11.4,12.4-29.6,2.3-42.3l-9.3-11.5c-4.6-5.7-4.1-13.8,1-19
		c5.9-5.9,9.3-14.1,9.3-22.5c0-5-1.2-9.9-3.4-14.1l-12.5-25.1l55.9,0L595,392.1z M332.5,199.6H385v17.5h-26.2
		c-4.8,0-8.8,3.9-8.8,8.8s3.9,8.8,8.8,8.8H385v17.5h-52.5V199.6z M236.2,234.6h26.2c4.8,0,8.8-3.9,8.8-8.8s-3.9-8.8-8.8-8.8h-26.2
		v-17.5h52.5v52.5h-52.5V234.6z M140,234.6h26.2c4.8,0,8.8-3.9,8.8-8.8s-3.9-8.8-8.8-8.8H140v-17.5h52.5v52.5H140V234.6z
		 M437.5,278.3h27c18.9,0,34.2,15.3,34.2,34.2c0,3.8-1.5,7.4-4.2,10.1l-5,5c-11.4,11.4-12.4,29.6-2.3,42.3l9.3,11.5
		c4.5,5.7,4.1,13.8-1,19c-5.9,5.9-9.3,14.1-9.3,22.5c0,5,1.2,9.9,3.4,14.1l12.5,25.1l-64.6,0L437.5,278.3z"/>
	<g>
		<defs>
			<polyline id="SVGID_1_" points="903.8,691.2 903.8,1391.2 203.8,1391.2 			"/>
		</defs>
		<clipPath id="SVGID_00000030446308624670587000000005843982968732846271_">
			<use xlink:href="#SVGID_1_"  style="overflow:visible;"/>
		</clipPath>
	</g>
</g>
</svg>
