<?xml version="1.0" encoding="UTF-8"?>
<svg width="700pt" height="700pt" version="1.1" viewBox="0 170 700 700" xmlns="http://www.w3.org/2000/svg">
 <g>
  <path d="m280 236.25c0 14.496-11.754 26.25-26.25 26.25s-26.25-11.754-26.25-26.25 11.754-26.25 26.25-26.25 26.25 11.754 26.25 26.25"/>
  <path d="m280 323.75c0 14.496-11.754 26.25-26.25 26.25s-26.25-11.754-26.25-26.25 11.754-26.25 26.25-26.25 26.25 11.754 26.25 26.25"/>
  <path d="m297.5 402.51c-1.9922 0-4.0078-0.33984-5.9805-1.0586-9.082-3.3086-13.766-13.348-10.465-22.43l70-192.5c3.3164-9.082 13.391-13.73 22.43-10.465 9.082 3.3086 13.766 13.348 10.465 22.43l-70 192.5c-2.5898 7.1055-9.2969 11.523-16.449 11.523z"/>
  <path d="m385 402.51c-1.9922 0-4.0078-0.33984-5.9805-1.0586-9.082-3.3086-13.766-13.348-10.465-22.43l70-192.5c3.3164-9.082 13.398-13.73 22.43-10.465 9.082 3.3086 13.766 13.348 10.465 22.43l-70 192.5c-2.5898 7.1055-9.2969 11.523-16.449 11.523z"/>
  <path d="m524.98 367.5c-3.6484 0-7.332-1.1367-10.484-3.5039-7.7344-5.793-9.2969-16.766-3.4961-24.5l44.621-59.496-44.621-59.5c-5.8008-7.7344-4.2383-18.703 3.4961-24.5 7.7656-5.8203 18.723-4.2109 24.5 3.4961l52.5 70c4.6758 6.2227 4.6758 14.781 0 21.004l-52.5 70c-3.4375 4.582-8.6953 7-14.016 7z"/>
  <path d="m175.02 367.5c-5.3242 0-10.578-2.418-14.016-7l-52.5-70c-4.6758-6.2227-4.6758-14.781 0-21.004l52.5-70c5.793-7.707 16.746-9.3125 24.5-3.4961 7.7344 5.793 9.2969 16.766 3.4961 24.5l-44.621 59.5 44.621 59.5c5.8008 7.7344 4.2383 18.703-3.4961 24.5-3.1523 2.3633-6.832 3.5-10.484 3.5z"/>
 </g>
</svg>
