<?xml version="1.0" standalone="no"?>
<!DOCTYPE svg PUBLIC "-//W3C//DTD SVG 20010904//EN"
 "http://www.w3.org/TR/2001/REC-SVG-20010904/DTD/svg10.dtd">
<svg version="1.0" xmlns="http://www.w3.org/2000/svg"
 width="200.000000pt" height="200.000000pt" viewBox="0 0 200.000000 200.000000"
 preserveAspectRatio="xMidYMid meet">
<metadata>
Created by potrace 1.14, written by Peter Selinger 2001-2017
</metadata>
<g transform="translate(0.000000,200.000000) scale(0.100000,-0.100000)"
fill="#000000" stroke="none">
<path d="M810 1750 c-231 -62 -412 -212 -510 -421 -93 -199 -94 -451 -4 -648
36 -79 52 -101 68 -95 12 5 8 18 -19 67 -62 114 -80 194 -80 352 1 131 3 146
32 228 44 124 86 190 183 287 97 97 163 139 287 183 83 30 96 32 233 32 136
-1 151 -3 233 -31 81 -28 108 -29 92 -4 -3 5 -43 21 -88 36 -114 38 -315 44
-427 14z"/>
<path d="M1480 1590 c0 -3 28 -35 63 -71 147 -158 214 -338 204 -554 -15 -326
-220 -588 -537 -687 -63 -19 -96 -23 -210 -23 -114 0 -147 4 -210 23 -91 29
-171 69 -236 118 -77 58 -83 60 -30 10 111 -102 294 -166 476 -166 132 0 232
23 350 82 122 61 267 206 328 328 59 118 82 218 82 350 0 205 -66 372 -202
514 -42 45 -77 79 -78 76z"/>
<path d="M715 1382 c-33 -14 -61 -27 -63 -28 -2 -1 6 -12 17 -23 11 -11 24
-33 28 -48 5 -16 8 -165 8 -333 0 -280 -2 -308 -18 -334 l-19 -28 159 4 c152
3 160 4 218 33 32 17 67 41 77 55 38 53 32 141 -14 210 -13 19 -61 65 -108
102 -125 101 -157 177 -111 266 37 73 98 106 183 100 72 -5 111 -38 133 -112
22 -74 22 -584 0 -626 l-16 -30 81 0 81 0 -13 23 c-10 16 -14 105 -18 327 l-5
305 -30 60 c-41 82 -77 105 -164 105 -160 0 -296 -139 -262 -268 17 -63 34
-85 136 -167 105 -84 135 -131 135 -209 0 -43 -5 -53 -38 -86 -44 -45 -118
-70 -203 -70 -40 0 -60 5 -70 17 -11 13 -15 93 -17 400 -2 289 -6 383 -15 382
-7 0 -39 -13 -72 -27z"/>
</g>
</svg>
