<svg id="visual" viewBox="0 0 900 600" width="900" height="600" xmlns="http://www.w3.org/2000/svg" xmlns:xlink="http://www.w3.org/1999/xlink" version="1.1"><rect x="0" y="0" width="900" height="600" fill="#f2F2F2"></rect><path d="M0 498L16.7 497.8C33.3 497.7 66.7 497.3 100 487.3C133.3 477.3 166.7 457.7 200 456.7C233.3 455.7 266.7 473.3 300 473.3C333.3 473.3 366.7 455.7 400 449C433.3 442.3 466.7 446.7 500 453.2C533.3 459.7 566.7 468.3 600 469C633.3 469.7 666.7 462.3 700 456.8C733.3 451.3 766.7 447.7 800 450.2C833.3 452.7 866.7 461.3 883.3 465.7L900 470L900 601L883.3 601C866.7 601 833.3 601 800 601C766.7 601 733.3 601 700 601C666.7 601 633.3 601 600 601C566.7 601 533.3 601 500 601C466.7 601 433.3 601 400 601C366.7 601 333.3 601 300 601C266.7 601 233.3 601 200 601C166.7 601 133.3 601 100 601C66.7 601 33.3 601 16.7 601L0 601Z" fill="#f2f2f2"></path><path d="M0 473L16.7 471.8C33.3 470.7 66.7 468.3 100 470C133.3 471.7 166.7 477.3 200 485.3C233.3 493.3 266.7 503.7 300 506.2C333.3 508.7 366.7 503.3 400 501.2C433.3 499 466.7 500 500 492.8C533.3 485.7 566.7 470.3 600 471.3C633.3 472.3 666.7 489.7 700 493.7C733.3 497.7 766.7 488.3 800 480.7C833.3 473 866.7 467 883.3 464L900 461L900 601L883.3 601C866.7 601 833.3 601 800 601C766.7 601 733.3 601 700 601C666.7 601 633.3 601 600 601C566.7 601 533.3 601 500 601C466.7 601 433.3 601 400 601C366.7 601 333.3 601 300 601C266.7 601 233.3 601 200 601C166.7 601 133.3 601 100 601C66.7 601 33.3 601 16.7 601L0 601Z" fill="#edd8d0"></path><path d="M0 484L16.7 485.8C33.3 487.7 66.7 491.3 100 491.5C133.3 491.7 166.7 488.3 200 493.7C233.3 499 266.7 513 300 516.2C333.3 519.3 366.7 511.7 400 509.7C433.3 507.7 466.7 511.3 500 514.5C533.3 517.7 566.7 520.3 600 516.5C633.3 512.7 666.7 502.3 700 499.5C733.3 496.7 766.7 501.3 800 508C833.3 514.7 866.7 523.3 883.3 527.7L900 532L900 601L883.3 601C866.7 601 833.3 601 800 601C766.7 601 733.3 601 700 601C666.7 601 633.3 601 600 601C566.7 601 533.3 601 500 601C466.7 601 433.3 601 400 601C366.7 601 333.3 601 300 601C266.7 601 233.3 601 200 601C166.7 601 133.3 601 100 601C66.7 601 33.3 601 16.7 601L0 601Z" fill="#e5bfae"></path><path d="M0 499L16.7 505.8C33.3 512.7 66.7 526.3 100 531C133.3 535.7 166.7 531.3 200 526.8C233.3 522.3 266.7 517.7 300 516.2C333.3 514.7 366.7 516.3 400 515C433.3 513.7 466.7 509.3 500 510.3C533.3 511.3 566.7 517.7 600 522.5C633.3 527.3 666.7 530.7 700 533.3C733.3 536 766.7 538 800 537.8C833.3 537.7 866.7 535.3 883.3 534.2L900 533L900 601L883.3 601C866.7 601 833.3 601 800 601C766.7 601 733.3 601 700 601C666.7 601 633.3 601 600 601C566.7 601 533.3 601 500 601C466.7 601 433.3 601 400 601C366.7 601 333.3 601 300 601C266.7 601 233.3 601 200 601C166.7 601 133.3 601 100 601C66.7 601 33.3 601 16.7 601L0 601Z" fill="#dca68e"></path><path d="M0 554L16.7 553.5C33.3 553 66.7 552 100 547.7C133.3 543.3 166.7 535.7 200 531.2C233.3 526.7 266.7 525.3 300 531C333.3 536.7 366.7 549.3 400 550C433.3 550.7 466.7 539.3 500 538.3C533.3 537.3 566.7 546.7 600 551C633.3 555.3 666.7 554.7 700 553.8C733.3 553 766.7 552 800 549C833.3 546 866.7 541 883.3 538.5L900 536L900 601L883.3 601C866.7 601 833.3 601 800 601C766.7 601 733.3 601 700 601C666.7 601 633.3 601 600 601C566.7 601 533.3 601 500 601C466.7 601 433.3 601 400 601C366.7 601 333.3 601 300 601C266.7 601 233.3 601 200 601C166.7 601 133.3 601 100 601C66.7 601 33.3 601 16.7 601L0 601Z" fill="#d18d6f"></path><path d="M0 540L16.7 542.5C33.3 545 66.7 550 100 552.7C133.3 555.3 166.7 555.7 200 557.3C233.3 559 266.7 562 300 562.2C333.3 562.3 366.7 559.7 400 555.8C433.3 552 466.7 547 500 548.7C533.3 550.3 566.7 558.7 600 563.5C633.3 568.3 666.7 569.7 700 570.7C733.3 571.7 766.7 572.3 800 571.7C833.3 571 866.7 569 883.3 568L900 567L900 601L883.3 601C866.7 601 833.3 601 800 601C766.7 601 733.3 601 700 601C666.7 601 633.3 601 600 601C566.7 601 533.3 601 500 601C466.7 601 433.3 601 400 601C366.7 601 333.3 601 300 601C266.7 601 233.3 601 200 601C166.7 601 133.3 601 100 601C66.7 601 33.3 601 16.7 601L0 601Z" fill="#c57550"></path><path d="M0 577L16.7 576.5C33.3 576 66.7 575 100 577C133.3 579 166.7 584 200 585.8C233.3 587.7 266.7 586.3 300 582.3C333.3 578.3 366.7 571.7 400 570.8C433.3 570 466.7 575 500 578.7C533.3 582.3 566.7 584.7 600 584C633.3 583.3 666.7 579.7 700 577.5C733.3 575.3 766.7 574.7 800 573.5C833.3 572.3 866.7 570.7 883.3 569.8L900 569L900 601L883.3 601C866.7 601 833.3 601 800 601C766.7 601 733.3 601 700 601C666.7 601 633.3 601 600 601C566.7 601 533.3 601 500 601C466.7 601 433.3 601 400 601C366.7 601 333.3 601 300 601C266.7 601 233.3 601 200 601C166.7 601 133.3 601 100 601C66.7 601 33.3 601 16.7 601L0 601Z" fill="#b75d32"></path></svg>