<?xml version="1.0" encoding="iso-8859-1"?>
<!-- Uploaded to: SVG Repo, www.svgrepo.com, Generator: SVG Repo Mixer Tools -->
<svg height="180px" width="180px" version="1.1" id="Layer_1" xmlns="http://www.w3.org/2000/svg" xmlns:xlink="http://www.w3.org/1999/xlink" 
	 viewBox="0 0 512 512" xml:space="preserve">
<polygon style="fill:#8ECAC1;" points="501.921,101.795 10.079,101.795 10.079,340.845 143.302,207.622 218.892,283.213 
	246.746,255.358 401.592,410.205 501.921,410.205 "/>
<g>
	<polygon style="fill:#F2D59F;" points="91.9,410.205 218.892,283.213 143.302,207.622 10.079,340.845 10.079,410.205 	"/>
	<polygon style="fill:#F2D59F;" points="401.592,410.205 246.746,255.358 91.9,410.205 	"/>
</g>
<circle style="fill:#FF7124;" cx="407.181" cy="196.535" r="49.386"/>
<g>
	<path style="fill:#4D3D36;" d="M0,410.205c0,5.566,4.513,10.079,10.079,10.079h491.843c5.565,0,10.079-4.512,10.079-10.079V101.795
		c0-5.566-4.513-10.079-10.079-10.079H10.079C4.513,91.717,0,96.229,0,101.795V410.205z M87.724,400.126H20.157v-55.107
		l123.144-123.144l61.336,61.337L87.724,400.126z M246.746,269.611L377.26,400.126H116.232L246.746,269.611z M491.843,400.126
		h-86.074L253.873,248.231c-3.937-3.936-10.317-3.936-14.254,0l-20.727,20.727l-68.464-68.464c-3.937-3.936-10.317-3.936-14.254,0
		L20.157,316.512V111.874h471.685V400.126z"/>
	<path style="fill:#4D3D36;" d="M407.181,256c32.788,0,59.465-26.675,59.465-59.465s-26.676-59.465-59.465-59.465
		s-59.465,26.675-59.465,59.465S374.393,256,407.181,256z M407.181,157.228c21.674,0,39.307,17.633,39.307,39.307
		s-17.633,39.307-39.307,39.307c-21.674,0-39.307-17.633-39.307-39.307S385.507,157.228,407.181,157.228z"/>
	<path style="fill:#4D3D36;" d="M312.873,381.048c1.968,1.968,4.548,2.952,7.127,2.952s5.158-0.984,7.127-2.952
		c3.936-3.936,3.936-10.318,0-14.254l-5.542-5.542c-3.937-3.936-10.317-3.936-14.254,0c-3.936,3.936-3.936,10.318,0,14.254
		L312.873,381.048z"/>
	<path style="fill:#4D3D36;" d="M240.81,308.985l42.329,42.329c1.968,1.968,4.548,2.952,7.127,2.952s5.158-0.984,7.127-2.952
		c3.936-3.936,3.936-10.318,0-14.254l-42.329-42.329c-3.937-3.936-10.317-3.936-14.254,0
		C236.874,298.667,236.874,305.049,240.81,308.985z"/>
</g>
</svg>