<?xml version="1.0" encoding="utf-8"?>
<!-- Generator: Adobe Illustrator 27.2.0, SVG Export Plug-In . SVG Version: 6.00 Build 0)  -->
<svg version="1.1" id="Calque_1" xmlns="http://www.w3.org/2000/svg" xmlns:xlink="http://www.w3.org/1999/xlink" x="0px" y="0px"
	 viewBox="0 0 700 700" style="enable-background:new 0 0 700 700;" xml:space="preserve">
<g>
	<path d="M538.5,171.3H212.3c-3,0-5.8,1.2-7.9,3.3l-35.7,35.7c-2.1,2.1-3.3,4.9-3.3,7.9l0,127.4c0,3,1.2,5.8,3.3,7.9l35.7,35.7
		c2.1,2.1,4.9,3.3,7.9,3.3h326.2c6.2,0,11.2-5,11.2-11.2V182.5C549.7,176.3,544.7,171.3,538.5,171.3L538.5,171.3z M527.3,370.1H217
		l-29.1-29.1l0-118.1l29.1-29.1h310.4L527.3,370.1z"/>
	<path d="M198.6,281.9c0,20.1,16.3,36.4,36.4,36.4c20.1,0,36.4-16.3,36.4-36.4c0-20.1-16.3-36.4-36.4-36.4
		C214.9,245.5,198.6,261.8,198.6,281.9z M235,267.9c7.7,0,14,6.3,14,14c0,7.7-6.3,14-14,14c-7.7,0-14-6.3-14-14
		C221,274.2,227.3,267.9,235,267.9z"/>
	<path d="M306,340.9h182.2c6.2,0,11.2-5,11.2-11.2c0-6.2-5-11.2-11.2-11.2H306c-6.2,0-11.2,5-11.2,11.2
		C294.8,335.8,299.8,340.9,306,340.9z"/>
	<path d="M306,293.1h182.2c6.2,0,11.2-5,11.2-11.2c0-6.2-5-11.2-11.2-11.2H306c-6.2,0-11.2,5-11.2,11.2
		C294.8,288.1,299.8,293.1,306,293.1z"/>
	<path d="M306,245.3h182.2c6.2,0,11.2-5,11.2-11.2c0-6.2-5-11.2-11.2-11.2H306c-6.2,0-11.2,5-11.2,11.2
		C294.8,240.3,299.8,245.3,306,245.3z"/>
	<g>
		<defs>
			<polyline id="SVGID_1_" points="855.6,644 855.6,1344 155.6,1344 			"/>
		</defs>
		<clipPath id="SVGID_00000029014734104298400400000000506471552260235936_">
			<use xlink:href="#SVGID_1_"  style="overflow:visible;"/>
		</clipPath>
	</g>
	<g>
		<defs>
			<polyline id="SVGID_00000144324609143433001280000008142290308615795114_" points="982.1,644 982.1,1344 282.1,1344 			"/>
		</defs>
		<clipPath id="SVGID_00000041998230577969512260000012612363379387886746_">
			<use xlink:href="#SVGID_00000144324609143433001280000008142290308615795114_"  style="overflow:visible;"/>
		</clipPath>
	</g>
	<g>
		<defs>
			<polyline id="SVGID_00000105411076289917367010000001812222538349034392_" points="1018,644 1018,1344 318,1344 			"/>
		</defs>
		<clipPath id="SVGID_00000178924398512389424820000003895401483065014173_">
			<use xlink:href="#SVGID_00000105411076289917367010000001812222538349034392_"  style="overflow:visible;"/>
		</clipPath>
	</g>
	<g>
		<defs>
			<polyline id="SVGID_00000084505060081906881710000016538458829801901236_" points="1064.6,644 1064.6,1344 364.6,1344 			"/>
		</defs>
		<clipPath id="SVGID_00000031894264647669358420000002497518925738417823_">
			<use xlink:href="#SVGID_00000084505060081906881710000016538458829801901236_"  style="overflow:visible;"/>
		</clipPath>
	</g>
	<g>
		<defs>
			<polyline id="SVGID_00000060021956926532315850000013722701816281142450_" points="1083.5,644 1083.5,1344 383.5,1344 			"/>
		</defs>
		<clipPath id="SVGID_00000060749914731477616150000016969940492955664056_">
			<use xlink:href="#SVGID_00000060021956926532315850000013722701816281142450_"  style="overflow:visible;"/>
		</clipPath>
	</g>
	<g>
		<defs>
			<polyline id="SVGID_00000180355922791948288110000013530794855880146076_" points="1102.4,644 1102.4,1344 402.4,1344 			"/>
		</defs>
		<clipPath id="SVGID_00000132794043325401170580000000439319555811426733_">
			<use xlink:href="#SVGID_00000180355922791948288110000013530794855880146076_"  style="overflow:visible;"/>
		</clipPath>
	</g>
	<g>
		<defs>
			<polyline id="SVGID_00000124135910406054159250000004980174022536618161_" points="782.2,672 782.2,1372 82.2,1372 			"/>
		</defs>
		<clipPath id="SVGID_00000091697698650495885410000007441631188420975282_">
			<use xlink:href="#SVGID_00000124135910406054159250000004980174022536618161_"  style="overflow:visible;"/>
		</clipPath>
	</g>
	<g>
		<defs>
			<polyline id="SVGID_00000165925567149842535590000001524501866050008464_" points="796,672 796,1372 96,1372 			"/>
		</defs>
		<clipPath id="SVGID_00000080198423332987879250000013149035453861237418_">
			<use xlink:href="#SVGID_00000165925567149842535590000001524501866050008464_"  style="overflow:visible;"/>
		</clipPath>
	</g>
	<g>
		<defs>
			<polyline id="SVGID_00000119829387521671891090000010744814022575982517_" points="854.2,672 854.2,1372 154.2,1372 			"/>
		</defs>
		<clipPath id="SVGID_00000103971947949971940160000012025814817401289861_">
			<use xlink:href="#SVGID_00000119829387521671891090000010744814022575982517_"  style="overflow:visible;"/>
		</clipPath>
	</g>
	<g>
		<defs>
			<polyline id="SVGID_00000152962211897794013720000009122472622377963658_" points="887.5,672 887.5,1372 187.5,1372 			"/>
		</defs>
		<clipPath id="SVGID_00000040546242758283670250000011388652059204052922_">
			<use xlink:href="#SVGID_00000152962211897794013720000009122472622377963658_"  style="overflow:visible;"/>
		</clipPath>
	</g>
	<g>
		<defs>
			<polyline id="SVGID_00000163072508195097050880000009669516647301960836_" points="939.6,672 939.6,1372 239.6,1372 			"/>
		</defs>
		<clipPath id="SVGID_00000003791163965624460070000010232773044249740432_">
			<use xlink:href="#SVGID_00000163072508195097050880000009669516647301960836_"  style="overflow:visible;"/>
		</clipPath>
	</g>
	<g>
		<defs>
			<polyline id="SVGID_00000106870233846971195100000001112853087022218919_" points="1029,672 1029,1372 329,1372 			"/>
		</defs>
		<clipPath id="SVGID_00000157996041395788462080000004894132101242931590_">
			<use xlink:href="#SVGID_00000106870233846971195100000001112853087022218919_"  style="overflow:visible;"/>
		</clipPath>
	</g>
	<g>
		<defs>
			<polyline id="SVGID_00000148654987789623166570000006396132116417055669_" points="1042.8,672 1042.8,1372 342.8,1372 			"/>
		</defs>
		<clipPath id="SVGID_00000079452586532201536210000009570918481788875154_">
			<use xlink:href="#SVGID_00000148654987789623166570000006396132116417055669_"  style="overflow:visible;"/>
		</clipPath>
	</g>
	<g>
		<defs>
			<polyline id="SVGID_00000090267556577208387320000008751063865674988681_" points="1071.7,672 1071.7,1372 371.7,1372 			"/>
		</defs>
		<clipPath id="SVGID_00000140718861445190673160000013126313772963345340_">
			<use xlink:href="#SVGID_00000090267556577208387320000008751063865674988681_"  style="overflow:visible;"/>
		</clipPath>
	</g>
	<g>
		<defs>
			<polyline id="SVGID_00000063609236811204394270000013263568607821183882_" points="1107.2,672 1107.2,1372 407.2,1372 			"/>
		</defs>
		<clipPath id="SVGID_00000043420160574308173920000017049183165483750299_">
			<use xlink:href="#SVGID_00000063609236811204394270000013263568607821183882_"  style="overflow:visible;"/>
		</clipPath>
	</g>
</g>
</svg>
