<?xml version="1.0" encoding="utf-8"?>
<!-- Generator: Adobe Illustrator 27.2.0, SVG Export Plug-In . SVG Version: 6.00 Build 0)  -->
<svg version="1.1" id="Calque_1" xmlns="http://www.w3.org/2000/svg" xmlns:xlink="http://www.w3.org/1999/xlink" x="0px" y="0px"
	 viewBox="0 0 700 700" style="enable-background:new 0 0 700 700;" xml:space="preserve">
<symbol  id="a" viewBox="-11.3 -15.9 22.7 31.9">
	<path d="M-11.3-15.9h8.2V9.7h14.5v6.2h-22.7L-11.3-15.9z"/>
</symbol>
<g>
	<path d="M562.8,103.4H125.2c-7,0-13.6,2.8-18.6,7.7c-4.9,4.9-7.7,11.6-7.7,18.6v26.2h490v-26.2c0-7-2.8-13.6-7.7-18.6
		C576.4,106.1,569.7,103.4,562.8,103.4L562.8,103.4z M134,138.4c-3.5,0-6.7-2.1-8.1-5.4c-1.4-3.3-0.6-7,1.9-9.5
		c2.5-2.5,6.3-3.3,9.5-1.9c3.3,1.4,5.4,4.5,5.4,8.1c0,2.3-0.9,4.5-2.6,6.2C138.5,137.5,136.3,138.4,134,138.4z M169,138.4
		c-3.5,0-6.7-2.1-8.1-5.4c-1.4-3.3-0.6-7,1.9-9.5c2.5-2.5,6.3-3.3,9.5-1.9c3.3,1.4,5.4,4.5,5.4,8.1c0,2.3-0.9,4.5-2.6,6.2
		C173.5,137.5,171.3,138.4,169,138.4z M204,138.4c-3.5,0-6.7-2.1-8.1-5.4c-1.4-3.3-0.6-7,1.9-9.5c2.5-2.5,6.3-3.3,9.5-1.9
		c3.3,1.4,5.4,4.5,5.4,8.1c0,2.3-0.9,4.5-2.6,6.2C208.5,137.5,206.3,138.4,204,138.4z"/>
	<path d="M575.5,414.4l-17.5,1.1c-3.3,0.2-6.4-1.5-8-4.3c-3-5.1-6.5-9.8-10.4-14.3c-2.1-2.4-2.7-5.8-1.6-8.8l6.6-16.6
		c1.4-3.7,0.2-7.8-3-10.1l-6.7-5c-3.1-2.4-7.5-2.4-10.7,0l-13.9,11.6c-2.5,2-5.8,2.4-8.8,1.2c-5.7-2.3-11.5-4.2-17.5-5.5
		c-3.2-0.7-5.7-3.1-6.6-6.2l-4.4-17.5c-1-4-4.7-6.7-8.8-6.6h-8.8c-4.1-0.1-7.7,2.6-8.8,6.6l-4.5,17.5c-0.9,3.1-3.4,5.5-6.6,6.2
		c-5.7,1.4-11.3,3.2-16.7,5.5c-2.9,1.2-6.3,0.7-8.8-1.2l-13.8-11.5v0c-3.1-2.4-7.5-2.4-10.6,0l-6.8,5h0c-3.2,2.3-4.4,6.5-3,10.1
		l6.6,16.6c1.1,3,0.4,6.4-1.7,8.8c-3.5,4.4-6.6,9-9.3,13.9c-1.7,2.8-4.7,4.4-8,4.3l-17.5-1.1v0c-3.9-0.2-7.5,2.2-8.8,6l-2.6,8
		c-1.2,3.8,0.3,7.9,3.7,10l15.1,9.5l0,0c2.8,1.8,4.3,5,3.9,8.3c0,2.9-0.4,5.8-0.4,8.8s0,5.9,0.4,8.8c0.5,3.4-1,6.9-3.9,8.8
		l-15.4,9.4c-3.3,2.1-4.8,6.2-3.7,10l2.6,8c1.3,3.7,4.8,6.2,8.8,5.9l17.5-1.1c3.2-0.2,6.3,1.5,8,4.3c3,5.1,6.5,9.8,10.4,14.3
		c2.1,2.4,2.7,5.7,1.7,8.8l-6.6,16.6h0c-1.4,3.8,0,8.1,3.3,10.3l6.8,5c3.1,2.4,7.5,2.4,10.6,0l13.8-11.5v0c2.5-2,5.8-2.4,8.8-1.2
		c5.4,2.3,11,4.1,16.7,5.5c3.2,0.7,5.7,3.1,6.6,6.2l4.5,17.5c1,4,4.7,6.7,8.8,6.6h8.8c4.1,0.1,7.7-2.6,8.8-6.6l4.4-17.5
		c0.9-3.1,3.4-5.5,6.6-6.2c5.6-1.5,11.1-3.4,16.4-5.8c2.9-1.2,6.3-0.7,8.8,1.2l13.7,11.5v0c3.1,2.4,7.5,2.4,10.7,0l6.7-5h0
		c3.2-2.3,4.4-6.5,3-10.2l-6.6-15.8c-1.1-3-0.5-6.3,1.6-8.8c3.9-4.4,7.4-9.2,10.4-14.3c1.7-2.8,4.8-4.5,8.1-4.3l17.5,1.1
		c3.9,0.2,7.5-2.2,8.8-5.9l2.5-8c1.2-3.8-0.3-7.8-3.6-10l-15.1-9.5v0c-2.9-1.9-4.5-5.3-3.9-8.8v-8.8v-8.8c-0.4-3.3,1.2-6.5,3.9-8.3
		l15.1-9.5c3.5-2,5.1-6.2,3.9-10.1l-2.5-8h0C583.2,416.7,579.5,414.2,575.5,414.4L575.5,414.4z M508.6,514.9
		c-70.9,52.5-150.2-26.9-97.7-97.8h0c0.6-0.8,1.3-1.5,2.1-2.1c71-52.5,150.2,26.9,97.8,97.8C510.2,513.6,509.4,514.3,508.6,514.9
		L508.6,514.9z"/>
	<path d="M289.8,462.7l-3.4,1.4h0c-3,1.1-6.3,0.5-8.8-1.6c-4.3-3.5-9.2-6.2-14.4-8.2c-3.2-1.1-5.5-3.8-5.9-7.2v-3.7
		c-0.6-4.3-4.4-7.6-8.8-7.5h-7.2c-4.4,0-8.1,3.2-8.8,7.5l-0.4,3.7c-0.4,3.3-2.8,6.1-5.9,7.2c-5.2,2-10,4.8-14.4,8.2
		c-2.4,2.1-5.8,2.7-8.8,1.6l-3.4-1.4h0c-4-1.6-8.6-0.1-10.9,3.7l-3.6,6.1c-2.4,3.5-1.9,8.2,1.1,11.2l3,2.3c2.4,1.9,3.7,5,3.2,8.1
		c-1,5.8-1,11.7,0,17.5c0.4,3.1-0.8,6.1-3.2,8.1l-3,2.6c-3.4,2.8-4.2,7.6-1.9,11.4l3.6,6.1h0c2.2,3.8,6.8,5.3,10.8,3.7l3.4-1.4v0
		c3-1.1,6.3-0.5,8.8,1.6c4.3,3.5,9.2,6.2,14.3,8.2c3.2,1.1,5.5,3.8,6,7.2l0.4,3.7c0.6,4.3,4.4,7.6,8.8,7.5h7.1
		c4.4,0,8.1-3.2,8.8-7.5v-3.7c0.4-3.3,2.8-6.1,5.9-7.2c5.2-2,10-4.8,14.4-8.2c2.4-2.1,5.8-2.7,8.8-1.6l3.4,1.4l0,0
		c4,1.6,8.7,0.1,10.9-3.7l3.6-6.1c2.1-3.8,1.2-8.5-2.3-11.2l-3-2.3v0c-2.4-1.9-3.7-5-3.2-8c1-5.8,1-11.7,0-17.5
		c-0.4-3.1,0.8-6.1,3.2-8.1l3-2.3v0c4.1-2.4,5.5-7.7,3.1-11.9l-3.6-6.1C298.4,462.5,293.8,461,289.8,462.7L289.8,462.7z M258,518.9
		L258,518.9c-5.4,4-12.4,5.2-18.9,3.2c-6.4-2-11.5-7-13.6-13.4c-2.1-6.4-1-13.4,2.9-18.9c0.6-1,1.5-1.8,2.4-2.4
		c5.4-4.5,12.7-6,19.5-4c6.8,2,12,7.3,14.1,14.1s0.5,14.1-4,19.5C259.8,517.7,258.9,518.4,258,518.9L258,518.9z"/>
	<path d="M357.6,232.7c3.6-3.6,5.6-8.5,5.6-13.6c0-5.1-2-10-5.6-13.6c-3.6-3.6-8.5-5.7-13.6-5.8c-5.1,0-10,2.1-13.6,5.7
		c-3.6,3.6-5.6,8.5-5.6,13.7c0,5.1,2,10,5.6,13.7c3.6,3.6,8.5,5.6,13.6,5.6C349,238.3,353.9,236.3,357.6,232.7L357.6,232.7z"/>
	<path d="M99,435.9c0,7,2.8,13.6,7.7,18.6c4.9,4.9,11.6,7.7,18.6,7.7h45.1l6.4-11.2l0,0c1.5-2.7,3.8-4.9,6.4-6.4
		c2.7-1.5,5.7-2.3,8.8-2.3c2.3,0,4.6,0.5,6.7,1.4l5.8,2.4c3.4-2.4,6.9-4.4,10.7-6.1l0.8-6.2l0,0c0.6-4.2,2.6-8.1,5.9-10.9
		c3.2-2.8,7.4-4.3,11.6-4.3h22.2c4.3,0,8.4,1.5,11.6,4.3c3.2,2.8,5.3,6.7,5.9,10.9l0.8,6.2v0c3.7,1.7,7.3,3.8,10.7,6.1l5.8-2.4h0
		c2.1-0.9,4.4-1.4,6.6-1.4c3.1,0,6.1,0.8,8.8,2.3c2.7,1.5,4.9,3.8,6.4,6.4l6.4,11.2h21v0c0-0.8,0-1.5,0-2.3l-16.4-10.3
		c-3.3-2.1-5.8-5.2-7.1-8.8c-1.3-3.6-1.4-7.6-0.2-11.3l6.8-20.8c1.1-3.5,3.4-6.6,6.4-8.7c3-2.2,6.6-3.3,10.3-3.3h1.1l19.2,1.2
		c1.9-2.8,3.9-5.5,6-8.1l-7.2-17.5l0,0c-0.7-1.9-1.1-3.8-1.2-5.8H177.8c-15.6,0-30.1-8.3-37.9-21.9c-7.8-13.5-7.8-30.2,0-43.8
		c7.8-13.5,22.3-21.9,37.9-21.9h332.5c11.6,0,22.7,4.6,30.9,12.8c8.2,8.2,12.8,19.3,12.8,30.9c0,7.8-2.2,15.5-6.2,22.1l9.3,6.7
		c3,2.3,5.2,5.5,6.2,9.2c1,3.6,0.8,7.5-0.5,11.1l-7.1,17.5c2.1,2.6,4.1,5.3,5.9,8.1l19.2-1.2h1.1v0c2.3,0,4.6,0.5,6.7,1.5V173.4H99
		L99,435.9z M317.8,192.9c8.6-8.5,20.8-12.2,32.6-10c11.9,2.2,21.9,10.1,26.9,21.1c5,11,4.2,23.7-2,34.1l7.9,7.9
		c1.7,1.6,2.6,3.9,2.6,6.2c0,2.3-0.9,4.6-2.6,6.2c-1.6,1.6-3.8,2.5-6.1,2.5c-2.3,0-4.6-0.9-6.2-2.5l-7.9-7.9
		c-5.8,3.5-12.3,5.3-19.1,5.3c-9.8,0.1-19.2-3.8-26.2-10.7c-7-6.9-10.9-16.3-10.9-26.1c0-9.8,3.9-19.2,10.8-26.1L317.8,192.9z"/>
	<g>
		<defs>
			<polyline id="SVGID_1_" points="903.8,691.2 903.8,1391.2 203.8,1391.2 			"/>
		</defs>
		<clipPath id="SVGID_00000090985286895741832510000017775405376469323653_">
			<use xlink:href="#SVGID_1_"  style="overflow:visible;"/>
		</clipPath>
	</g>
	<g>
		<defs>
			<polyline id="SVGID_00000012442903424412929280000013418240433210137751_" points="1316.1,691.2 1316.1,1391.2 616.1,1391.2 			
				"/>
		</defs>
		<clipPath id="SVGID_00000047767476318434965270000008499556553379802780_">
			<use xlink:href="#SVGID_00000012442903424412929280000013418240433210137751_"  style="overflow:visible;"/>
		</clipPath>
	</g>
	<g>
		<defs>
			<polyline id="SVGID_00000126314061337698862630000005848237065780838840_" points="1347.6,691.2 1347.6,1391.2 647.6,1391.2 			
				"/>
		</defs>
		<clipPath id="SVGID_00000160153925885102526560000009041951872380854189_">
			<use xlink:href="#SVGID_00000126314061337698862630000005848237065780838840_"  style="overflow:visible;"/>
		</clipPath>
	</g>
	<g>
		<defs>
			<rect id="SVGID_00000108993929263794085940000010398066851415528894_" x="681.5" y="691.2" width="700" height="700"/>
		</defs>
		<clipPath id="SVGID_00000065754181298503730950000008094419678764892852_">
			<use xlink:href="#SVGID_00000108993929263794085940000010398066851415528894_"  style="overflow:visible;"/>
		</clipPath>
		<g style="clip-path:url(#SVGID_00000065754181298503730950000008094419678764892852_);">
			
				<use xlink:href="#a"  width="22.7" height="31.9" x="-11.3" y="-15.9" transform="matrix(1 0 0 1 696.8279 675.3044)" style="overflow:visible;"/>
		</g>
	</g>
</g>
</svg>
