<?xml version="1.0" encoding="utf-8"?>
<!-- Generator: Adobe Illustrator 27.2.0, SVG Export Plug-In . SVG Version: 6.00 Build 0)  -->
<svg version="1.1" id="Calque_1" xmlns="http://www.w3.org/2000/svg" xmlns:xlink="http://www.w3.org/1999/xlink" x="0px" y="0px"
	 viewBox="0 0 700 700" style="enable-background:new 0 0 700 700;" xml:space="preserve">
<g>
	<path d="M449.3,475.1c-13.6,0-26.3-6.8-33.9-17H284.7c-7.6,10.2-19.5,17-33.9,17c-4.2,0-8.5,4.2-8.5,8.5v38.2
		c0,5.1,4.2,8.5,8.5,8.5h198.6c4.2,0,8.5-3.4,8.5-8.5l0-38.2C457.8,478.5,454.4,475.2,449.3,475.1L449.3,475.1z"/>
	<path d="M587.6,29.7H112.4c-18.7,0-33.9,15.3-33.9,33.9l0,343.6c0,18.7,15.3,33.9,33.9,33.9h475.1c18.7,0,33.9-15.3,33.9-33.9
		l0-343.6C621.5,45,606.2,29.7,587.6,29.7L587.6,29.7z M173.5,395.4h-17c-5.1,0-8.5-3.4-8.5-8.5c0-4.2,3.4-8.5,8.5-8.5h17
		c5.1,0,8.5,4.2,8.5,8.5C182,392,178.6,395.4,173.5,395.4z M249.9,395.4h-17c-4.2,0-8.5-3.4-8.5-8.5c0-4.2,4.2-8.5,8.5-8.5h17
		c5.1,0,8.5,4.2,8.5,8.5C258.4,392,255,395.4,249.9,395.4z M371.2,395.4h-42.4c-5.1,0-8.5-3.4-8.5-8.5c0-4.2,3.4-8.5,8.5-8.5h42.4
		c4.2,0,8.5,4.2,8.5,8.5C379.7,392,375.4,395.4,371.2,395.4z M604.5,333.5H95.5V63.6c0-9.3,7.6-17,17-17h475.1c9.3,0,17,7.6,17,17
		L604.5,333.5z"/>
	<path d="M142.1,230.8h144.2c5.1,0,8.5-3.4,8.5-8.5V92.5c0-5.1-3.4-8.5-8.5-8.5H142.1c-5.1,0-8.5,3.4-8.5,8.5v129.8
		C133.6,227.4,137,230.8,142.1,230.8L142.1,230.8z M182.8,177.3l36.5-36.5h-11c-4.2,0-8.5-3.4-8.5-8.5c0-5.1,4.2-8.5,8.5-8.5h31.4
		c4.2,0,8.5,4.2,8.5,8.5v31.4c0,5.1-3.4,8.5-8.5,8.5c-5.1,0-8.5-3.4-8.5-8.5v-11l-36.5,36.5c-3.4,3.4-8.5,3.4-11.9,0
		C179.5,185.8,179.5,179.9,182.8,177.3L182.8,177.3z"/>
	<path d="M557.9,84H353.4c-5.1,0-8.5,3.4-8.5,8.5s3.4,8.5,8.5,8.5h204.5c5.1,0,8.5-3.4,8.5-8.5S563,84,557.9,84z"/>
	<path d="M557.9,149.3H353.4c-5.1,0-8.5,3.4-8.5,8.5s3.4,8.5,8.5,8.5h204.5c5.1,0,8.5-3.4,8.5-8.5S563,149.3,557.9,149.3z"/>
	<path d="M557.9,213.8H353.4c-5.1,0-8.5,3.4-8.5,8.5c0,5.1,3.4,8.5,8.5,8.5h204.5c5.1,0,8.5-3.4,8.5-8.5
		C566.4,218.1,563,213.8,557.9,213.8z"/>
	<path d="M557.9,279.1H142.1c-5.1,0-8.5,3.4-8.5,8.5c0,5.1,3.4,8.5,8.5,8.5h416.6c5.1,0,8.5-3.4,8.5-8.5
		C566.4,282.5,563,279.1,557.9,279.1L557.9,279.1z"/>
	<g>
		<defs>
			<polyline id="SVGID_1_" points="899.7,687.3 899.7,1387.3 199.7,1387.3 			"/>
		</defs>
		<clipPath id="SVGID_00000135664957106932960720000001348352124158757308_">
			<use xlink:href="#SVGID_1_"  style="overflow:visible;"/>
		</clipPath>
	</g>
	<g>
		<defs>
			<polyline id="SVGID_00000062890975452884790360000015314538037610651317_" points="1077.5,687.3 1077.5,1387.3 377.5,1387.3 			
				"/>
		</defs>
		<clipPath id="SVGID_00000137847700376496272480000011542724386950100884_">
			<use xlink:href="#SVGID_00000062890975452884790360000015314538037610651317_"  style="overflow:visible;"/>
		</clipPath>
	</g>
	<g>
		<defs>
			<polyline id="SVGID_00000037652432031460904300000015750958389779121068_" points="1158.2,687.3 1158.2,1387.3 458.2,1387.3 			
				"/>
		</defs>
		<clipPath id="SVGID_00000113354275723729586130000005315221898502345868_">
			<use xlink:href="#SVGID_00000037652432031460904300000015750958389779121068_"  style="overflow:visible;"/>
		</clipPath>
	</g>
	<g>
		<defs>
			<polyline id="SVGID_00000119096218328381340860000015924693292288756897_" points="1230,687.3 1230,1387.3 530,1387.3 			"/>
		</defs>
		<clipPath id="SVGID_00000064335091509768160780000015490169174021681340_">
			<use xlink:href="#SVGID_00000119096218328381340860000015924693292288756897_"  style="overflow:visible;"/>
		</clipPath>
	</g>
	<g>
		<defs>
			<polyline id="SVGID_00000167365617473154974290000015373080152519482807_" points="1260.4,687.3 1260.4,1387.3 560.4,1387.3 			
				"/>
		</defs>
		<clipPath id="SVGID_00000155144100499678133870000000961180549562923195_">
			<use xlink:href="#SVGID_00000167365617473154974290000015373080152519482807_"  style="overflow:visible;"/>
		</clipPath>
	</g>
	<g>
		<defs>
			<polyline id="SVGID_00000175306528233909999520000014433174900957031326_" points="897.5,729.7 897.5,1429.7 197.5,1429.7 			"/>
		</defs>
		<clipPath id="SVGID_00000029725849422946641240000013855813074460667029_">
			<use xlink:href="#SVGID_00000175306528233909999520000014433174900957031326_"  style="overflow:visible;"/>
		</clipPath>
	</g>
	<g>
		<defs>
			<polyline id="SVGID_00000170247025282562219260000014065049194579114144_" points="1131.4,729.7 1131.4,1429.7 431.4,1429.7 			
				"/>
		</defs>
		<clipPath id="SVGID_00000077304161018080519970000002609497922826994591_">
			<use xlink:href="#SVGID_00000170247025282562219260000014065049194579114144_"  style="overflow:visible;"/>
		</clipPath>
	</g>
	<g>
		<defs>
			<polyline id="SVGID_00000058582572938907940190000002613820054902201728_" points="1281,729.7 1281,1429.7 581,1429.7 			"/>
		</defs>
		<clipPath id="SVGID_00000181053995155237309560000018161614527034509503_">
			<use xlink:href="#SVGID_00000058582572938907940190000002613820054902201728_"  style="overflow:visible;"/>
		</clipPath>
	</g>
</g>
</svg>
