<!-- <svg id="visual" viewBox="0 0 900 600" width="900" height="600" xmlns="http://www.w3.org/2000/svg" xmlns:xlink="http://www.w3.org/1999/xlink" version="1.1"><rect x="0" y="0" width="900" height="600" fill="#f2F2F2"></rect><path d="M0 303L16.7 309C33.3 315 66.7 327 100 326.7C133.3 326.3 166.7 313.7 200 312.7C233.3 311.7 266.7 322.3 300 332.3C333.3 342.3 366.7 351.7 400 358C433.3 364.3 466.7 367.7 500 371.5C533.3 375.3 566.7 379.7 600 371C633.3 362.3 666.7 340.7 700 327.2C733.3 313.7 766.7 308.3 800 318.7C833.3 329 866.7 355 883.3 368L900 381L900 601L883.3 601C866.7 601 833.3 601 800 601C766.7 601 733.3 601 700 601C666.7 601 633.3 601 600 601C566.7 601 533.3 601 500 601C466.7 601 433.3 601 400 601C366.7 601 333.3 601 300 601C266.7 601 233.3 601 200 601C166.7 601 133.3 601 100 601C66.7 601 33.3 601 16.7 601L0 601Z" fill="#f2f2f2"></path><path d="M0 352L16.7 351.3C33.3 350.7 66.7 349.3 100 353.2C133.3 357 166.7 366 200 368.2C233.3 370.3 266.7 365.7 300 367C333.3 368.3 366.7 375.7 400 372.5C433.3 369.3 466.7 355.7 500 354C533.3 352.3 566.7 362.7 600 372.7C633.3 382.7 666.7 392.3 700 391.3C733.3 390.3 766.7 378.7 800 376.3C833.3 374 866.7 381 883.3 384.5L900 388L900 601L883.3 601C866.7 601 833.3 601 800 601C766.7 601 733.3 601 700 601C666.7 601 633.3 601 600 601C566.7 601 533.3 601 500 601C466.7 601 433.3 601 400 601C366.7 601 333.3 601 300 601C266.7 601 233.3 601 200 601C166.7 601 133.3 601 100 601C66.7 601 33.3 601 16.7 601L0 601Z" fill="#edd8d0"></path><path d="M0 431L16.7 423C33.3 415 66.7 399 100 395C133.3 391 166.7 399 200 408.5C233.3 418 266.7 429 300 427.7C333.3 426.3 366.7 412.7 400 405C433.3 397.3 466.7 395.7 500 403.3C533.3 411 566.7 428 600 430.2C633.3 432.3 666.7 419.7 700 415C733.3 410.3 766.7 413.7 800 420C833.3 426.3 866.7 435.7 883.3 440.3L900 445L900 601L883.3 601C866.7 601 833.3 601 800 601C766.7 601 733.3 601 700 601C666.7 601 633.3 601 600 601C566.7 601 533.3 601 500 601C466.7 601 433.3 601 400 601C366.7 601 333.3 601 300 601C266.7 601 233.3 601 200 601C166.7 601 133.3 601 100 601C66.7 601 33.3 601 16.7 601L0 601Z" fill="#e5bfae"></path><path d="M0 472L16.7 468C33.3 464 66.7 456 100 449.5C133.3 443 166.7 438 200 439.5C233.3 441 266.7 449 300 448.3C333.3 447.7 366.7 438.3 400 440.8C433.3 443.3 466.7 457.7 500 462.2C533.3 466.7 566.7 461.3 600 452.5C633.3 443.7 666.7 431.3 700 432.3C733.3 433.3 766.7 447.7 800 447.7C833.3 447.7 866.7 433.3 883.3 426.2L900 419L900 601L883.3 601C866.7 601 833.3 601 800 601C766.7 601 733.3 601 700 601C666.7 601 633.3 601 600 601C566.7 601 533.3 601 500 601C466.7 601 433.3 601 400 601C366.7 601 333.3 601 300 601C266.7 601 233.3 601 200 601C166.7 601 133.3 601 100 601C66.7 601 33.3 601 16.7 601L0 601Z" fill="#dca68e"></path><path d="M0 452L16.7 458.7C33.3 465.3 66.7 478.7 100 483.7C133.3 488.7 166.7 485.3 200 479.8C233.3 474.3 266.7 466.7 300 470.2C333.3 473.7 366.7 488.3 400 491.8C433.3 495.3 466.7 487.7 500 481.5C533.3 475.3 566.7 470.7 600 471C633.3 471.3 666.7 476.7 700 478.8C733.3 481 766.7 480 800 481.2C833.3 482.3 866.7 485.7 883.3 487.3L900 489L900 601L883.3 601C866.7 601 833.3 601 800 601C766.7 601 733.3 601 700 601C666.7 601 633.3 601 600 601C566.7 601 533.3 601 500 601C466.7 601 433.3 601 400 601C366.7 601 333.3 601 300 601C266.7 601 233.3 601 200 601C166.7 601 133.3 601 100 601C66.7 601 33.3 601 16.7 601L0 601Z" fill="#d18d6f"></path><path d="M0 527L16.7 527.5C33.3 528 66.7 529 100 526C133.3 523 166.7 516 200 512.3C233.3 508.7 266.7 508.3 300 508C333.3 507.7 366.7 507.3 400 508.5C433.3 509.7 466.7 512.3 500 510.8C533.3 509.3 566.7 503.7 600 503C633.3 502.3 666.7 506.7 700 508.3C733.3 510 766.7 509 800 510C833.3 511 866.7 514 883.3 515.5L900 517L900 601L883.3 601C866.7 601 833.3 601 800 601C766.7 601 733.3 601 700 601C666.7 601 633.3 601 600 601C566.7 601 533.3 601 500 601C466.7 601 433.3 601 400 601C366.7 601 333.3 601 300 601C266.7 601 233.3 601 200 601C166.7 601 133.3 601 100 601C66.7 601 33.3 601 16.7 601L0 601Z" fill="#c57550"></path><path d="M0 557L16.7 556.5C33.3 556 66.7 555 100 551.5C133.3 548 166.7 542 200 539.5C233.3 537 266.7 538 300 540.8C333.3 543.7 366.7 548.3 400 547.8C433.3 547.3 466.7 541.7 500 540.7C533.3 539.7 566.7 543.3 600 543.2C633.3 543 666.7 539 700 539.2C733.3 539.3 766.7 543.7 800 544.5C833.3 545.3 866.7 542.7 883.3 541.3L900 540L900 601L883.3 601C866.7 601 833.3 601 800 601C766.7 601 733.3 601 700 601C666.7 601 633.3 601 600 601C566.7 601 533.3 601 500 601C466.7 601 433.3 601 400 601C366.7 601 333.3 601 300 601C266.7 601 233.3 601 200 601C166.7 601 133.3 601 100 601C66.7 601 33.3 601 16.7 601L0 601Z" fill="#b75d32"></path></svg> -->

<svg width="100%" height="100%" id="svg" viewBox="0 0 1440 490" xmlns="http://www.w3.org/2000/svg" class="transition duration-300 ease-in-out delay-150"><style>
          .path-0{
            animation:pathAnim-0 8s;
            animation-timing-function: linear;
            animation-iteration-count: infinite;
          }
          @keyframes pathAnim-0{
            0%{
              d: path("M 0,500 C 0,500 0,100 0,100 C 247.5,117.5 495,135 735,135 C 975,135 1207.5,117.5 1440,100 C 1440,100 1440,500 1440,500 Z");
            }
            25%{
              d: path("M 0,500 C 0,500 0,100 0,100 C 191,104.5 382,109 622,109 C 862,109 1151,104.5 1440,100 C 1440,100 1440,500 1440,500 Z");
            }
            50%{
              d: path("M 0,500 C 0,500 0,100 0,100 C 178,91.5 356,83 596,83 C 836,83 1138,91.5 1440,100 C 1440,100 1440,500 1440,500 Z");
            }
            75%{
              d: path("M 0,500 C 0,500 0,100 0,100 C 290.5,98 581,96 821,96 C 1061,96 1250.5,98 1440,100 C 1440,100 1440,500 1440,500 Z");
            }
            100%{
              d: path("M 0,500 C 0,500 0,100 0,100 C 247.5,117.5 495,135 735,135 C 975,135 1207.5,117.5 1440,100 C 1440,100 1440,500 1440,500 Z");
            }
          }</style><defs><linearGradient id="gradient" x1="5%" y1="72%" x2="95%" y2="28%"><stop offset="5%" stop-color="#f2f2f2"></stop><stop offset="95%" stop-color="#b75d32"></stop></linearGradient></defs><path d="M 0,500 C 0,500 0,100 0,100 C 247.5,117.5 495,135 735,135 C 975,135 1207.5,117.5 1440,100 C 1440,100 1440,500 1440,500 Z" stroke="none" stroke-width="0" fill="url(#gradient)" fill-opacity="0.265" class="transition-all duration-300 ease-in-out delay-150 path-0"></path><style>
          .path-1{
            animation:pathAnim-1 8s;
            animation-timing-function: linear;
            animation-iteration-count: infinite;
          }
          @keyframes pathAnim-1{
            0%{
              d: path("M 0,500 C 0,500 0,200 0,200 C 244,188.5 488,177 728,177 C 968,177 1204,188.5 1440,200 C 1440,200 1440,500 1440,500 Z");
            }
            25%{
              d: path("M 0,500 C 0,500 0,200 0,200 C 298,204 596,208 836,208 C 1076,208 1258,204 1440,200 C 1440,200 1440,500 1440,500 Z");
            }
            50%{
              d: path("M 0,500 C 0,500 0,200 0,200 C 184.5,204.5 369,209 609,209 C 849,209 1144.5,204.5 1440,200 C 1440,200 1440,500 1440,500 Z");
            }
            75%{
              d: path("M 0,500 C 0,500 0,200 0,200 C 183.5,209.5 367,219 607,219 C 847,219 1143.5,209.5 1440,200 C 1440,200 1440,500 1440,500 Z");
            }
            100%{
              d: path("M 0,500 C 0,500 0,200 0,200 C 244,188.5 488,177 728,177 C 968,177 1204,188.5 1440,200 C 1440,200 1440,500 1440,500 Z");
            }
          }</style><defs><linearGradient id="gradient" x1="5%" y1="72%" x2="95%" y2="28%"><stop offset="5%" stop-color="#f2f2f2"></stop><stop offset="95%" stop-color="#b75d32"></stop></linearGradient></defs><path d="M 0,500 C 0,500 0,200 0,200 C 244,188.5 488,177 728,177 C 968,177 1204,188.5 1440,200 C 1440,200 1440,500 1440,500 Z" stroke="none" stroke-width="0" fill="url(#gradient)" fill-opacity="0.4" class="transition-all duration-300 ease-in-out delay-150 path-1"></path><style>
          .path-2{
            animation:pathAnim-2 8s;
            animation-timing-function: linear;
            animation-iteration-count: infinite;
          }
          @keyframes pathAnim-2{
            0%{
              d: path("M 0,500 C 0,500 0,300 0,300 C 234,284.5 468,269 708,269 C 948,269 1194,284.5 1440,300 C 1440,300 1440,500 1440,500 Z");
            }
            25%{
              d: path("M 0,500 C 0,500 0,300 0,300 C 251,284 502,268 742,268 C 982,268 1211,284 1440,300 C 1440,300 1440,500 1440,500 Z");
            }
            50%{
              d: path("M 0,500 C 0,500 0,300 0,300 C 223,313.5 446,327 686,327 C 926,327 1183,313.5 1440,300 C 1440,300 1440,500 1440,500 Z");
            }
            75%{
              d: path("M 0,500 C 0,500 0,300 0,300 C 225,311 450,322 690,322 C 930,322 1185,311 1440,300 C 1440,300 1440,500 1440,500 Z");
            }
            100%{
              d: path("M 0,500 C 0,500 0,300 0,300 C 234,284.5 468,269 708,269 C 948,269 1194,284.5 1440,300 C 1440,300 1440,500 1440,500 Z");
            }
          }</style><defs><linearGradient id="gradient" x1="5%" y1="72%" x2="95%" y2="28%"><stop offset="5%" stop-color="#f2f2f2"></stop><stop offset="95%" stop-color="#b75d32"></stop></linearGradient></defs><path d="M 0,500 C 0,500 0,300 0,300 C 234,284.5 468,269 708,269 C 948,269 1194,284.5 1440,300 C 1440,300 1440,500 1440,500 Z" stroke="none" stroke-width="0" fill="url(#gradient)" fill-opacity="0.53" class="transition-all duration-300 ease-in-out delay-150 path-2"></path><style>
          .path-3{
            animation:pathAnim-3 8s;
            animation-timing-function: linear;
            animation-iteration-count: infinite;
          }
          @keyframes pathAnim-3{
            0%{
              d: path("M 0,500 C 0,500 0,400 0,400 C 242.5,403.5 485,407 725,407 C 965,407 1202.5,403.5 1440,400 C 1440,400 1440,500 1440,500 Z");
            }
            25%{
              d: path("M 0,500 C 0,500 0,400 0,400 C 176,388 352,376 592,376 C 832,376 1136,388 1440,400 C 1440,400 1440,500 1440,500 Z");
            }
            50%{
              d: path("M 0,500 C 0,500 0,400 0,400 C 223.5,412.5 447,425 687,425 C 927,425 1183.5,412.5 1440,400 C 1440,400 1440,500 1440,500 Z");
            }
            75%{
              d: path("M 0,500 C 0,500 0,400 0,400 C 210,405.5 420,411 660,411 C 900,411 1170,405.5 1440,400 C 1440,400 1440,500 1440,500 Z");
            }
            100%{
              d: path("M 0,500 C 0,500 0,400 0,400 C 242.5,403.5 485,407 725,407 C 965,407 1202.5,403.5 1440,400 C 1440,400 1440,500 1440,500 Z");
            }
          }</style><defs><linearGradient id="gradient" x1="5%" y1="72%" x2="95%" y2="28%"><stop offset="5%" stop-color="#f2f2f2"></stop><stop offset="95%" stop-color="#b75d32"></stop></linearGradient></defs><path d="M 0,500 C 0,500 0,400 0,400 C 242.5,403.5 485,407 725,407 C 965,407 1202.5,403.5 1440,400 C 1440,400 1440,500 1440,500 Z" stroke="none" stroke-width="0" fill="url(#gradient)" fill-opacity="1" class="transition-all duration-300 ease-in-out delay-150 path-3"></path></svg>