<?xml version="1.0" encoding="utf-8"?>
<!-- Generator: Adobe Illustrator 27.2.0, SVG Export Plug-In . SVG Version: 6.00 Build 0)  -->
<svg version="1.1" id="Calque_1" xmlns="http://www.w3.org/2000/svg" xmlns:xlink="http://www.w3.org/1999/xlink" x="0px" y="0px"
	 viewBox="0 60 700 700" style="enable-background:new 0 0 700 700;" xml:space="preserve">
<style type="text/css">
	.st0{fill-rule:evenodd;clip-rule:evenodd;}
</style>
<g>
	<path class="st0" d="M315.1,219.1c0-4.4,1.8-8.6,4.9-11.7c3.1-3.1,7.3-4.9,11.7-4.9h0.5c5.8,0.1,11.2,3.3,14.1,8.4
		c2.9,5.1,2.9,11.3,0,16.4c-2.9,5.1-8.2,8.3-14.1,8.4h-0.5c-4.4,0-8.6-1.7-11.7-4.9C316.9,227.7,315.1,223.5,315.1,219.1
		L315.1,219.1z M472.7,184.1H241.6v77.4l32.5-30c3.1-2.8,7.1-4.4,11.2-4.4c4.2,0,8.2,1.6,11.2,4.4l33.9,31.2l60.6-55.8
		c3.1-2.8,7.1-4.4,11.2-4.4c4.2,0,8.2,1.6,11.2,4.4l59.1,54.5L472.7,184.1z M241.6,342.8v-36.2l43.8-40.3l20.7,19.1l-10.9,10.1
		c-4.4,4-6.2,10-4.9,15.8c1.3,5.8,5.6,10.4,11.2,12.2c5.7,1.8,11.8,0.4,16.2-3.6l84.7-78l70.4,64.8v36.2L241.6,342.8z M236.1,376
		h242.2c7.3,0,14.3-2.9,19.5-8.1c5.2-5.2,8.1-12.2,8.1-19.5V178.6c0-7.3-2.9-14.3-8.1-19.5c-5.2-5.2-12.2-8.1-19.5-8.1H236.1
		c-7.3,0-14.3,2.9-19.5,8.1c-5.2,5.2-8.1,12.2-8.1,19.5v169.8c0,7.3,2.9,14.3,8.1,19.5C221.7,373.1,228.7,376,236.1,376L236.1,376z
		 M585.1,453.6H129.2c-2.3,0-4.1-1.9-4.1-4.1v-15h464.2v15h0C589.3,451.7,587.4,453.5,585.1,453.6L585.1,453.6z M384,506.3h-53.7
		v-19.6H384L384,506.3z M456.7,545.1v10.6l-192.9,0v-10.6c0-3.1,2.5-5.6,5.6-5.6h181.7C454.2,539.5,456.6,542,456.7,545.1
		L456.7,545.1z M129.2,125.6c-2.3,0-4.1,1.9-4.1,4.1v271.6h464.2l0-271.5c0-2.3-1.9-4.1-4.1-4.1L129.2,125.6z M585.1,92.5H129.2
		c-9.9,0-19.4,3.9-26.4,10.9c-7,7-10.9,16.5-10.9,26.4v319.7c0,9.9,3.9,19.4,10.9,26.4c7,7,16.5,10.9,26.4,10.9h168v19.6h-27.8
		c-10.3,0-20.1,4.1-27.4,11.4c-7.3,7.3-11.4,17.1-11.4,27.4v22c0,5.8,2.3,11.3,6.4,15.4c4.1,4.1,9.6,6.4,15.4,6.4h215.7
		c5.8,0,11.3-2.3,15.4-6.4c4.1-4.1,6.4-9.6,6.4-15.4v-22c0-10.3-4.1-20.1-11.3-27.4c-7.3-7.3-17.1-11.4-27.4-11.4h-33.9v-19.6h168
		c9.9,0,19.4-3.9,26.4-10.9c7-7,10.9-16.5,10.9-26.4V129.8c0-9.9-3.9-19.4-10.9-26.4C604.5,96.4,595,92.5,585.1,92.5L585.1,92.5z"/>
	<g>
		<defs>
			<polyline id="SVGID_1_" points="860.1,648.4 860.1,1348.4 160.1,1348.4 			"/>
		</defs>
		<clipPath id="SVGID_00000135661650862446458210000009015719959004579774_">
			<use xlink:href="#SVGID_1_"  style="overflow:visible;"/>
		</clipPath>
	</g>
	<g>
		<defs>
			<polyline id="SVGID_00000062870717200303720650000015208154636451934653_" points="1061.6,648.4 1061.6,1348.4 361.6,1348.4 			
				"/>
		</defs>
		<clipPath id="SVGID_00000108307347702774741700000006424179082019070354_">
			<use xlink:href="#SVGID_00000062870717200303720650000015208154636451934653_"  style="overflow:visible;"/>
		</clipPath>
	</g>
	<g>
		<defs>
			<polyline id="SVGID_00000172405439960769664170000005646460151848508064_" points="782.8,677.9 782.8,1377.9 82.8,1377.9 			"/>
		</defs>
		<clipPath id="SVGID_00000083053771195362680660000017047728387715737740_">
			<use xlink:href="#SVGID_00000172405439960769664170000005646460151848508064_"  style="overflow:visible;"/>
		</clipPath>
	</g>
	<g>
		<defs>
			<polyline id="SVGID_00000106842029145048846410000000418090749965926051_" points="797.4,677.9 797.4,1377.9 97.4,1377.9 			"/>
		</defs>
		<clipPath id="SVGID_00000025434892031430785610000017285849722629438903_">
			<use xlink:href="#SVGID_00000106842029145048846410000000418090749965926051_"  style="overflow:visible;"/>
		</clipPath>
	</g>
	<g>
		<defs>
			<polyline id="SVGID_00000159452835560383711460000013275481279879541940_" points="817.6,677.9 817.6,1377.9 117.6,1377.9 			"/>
		</defs>
		<clipPath id="SVGID_00000086679839474868716460000014435703703077761442_">
			<use xlink:href="#SVGID_00000159452835560383711460000013275481279879541940_"  style="overflow:visible;"/>
		</clipPath>
	</g>
	<g>
		<defs>
			<polyline id="SVGID_00000054265208096615544520000005752775219348829601_" points="858.6,677.9 858.6,1377.9 158.6,1377.9 			"/>
		</defs>
		<clipPath id="SVGID_00000005258939314689715280000010569072726465326247_">
			<use xlink:href="#SVGID_00000054265208096615544520000005752775219348829601_"  style="overflow:visible;"/>
		</clipPath>
	</g>
	<g>
		<defs>
			<polyline id="SVGID_00000083049596127379414240000014402327885558300313_" points="893.7,677.9 893.7,1377.9 193.7,1377.9 			"/>
		</defs>
		<clipPath id="SVGID_00000033352121855275462250000012813406109716250027_">
			<use xlink:href="#SVGID_00000083049596127379414240000014402327885558300313_"  style="overflow:visible;"/>
		</clipPath>
	</g>
	<g>
		<defs>
			<polyline id="SVGID_00000060023626632978635860000018439858774830130304_" points="948.6,677.9 948.6,1377.9 248.6,1377.9 			"/>
		</defs>
		<clipPath id="SVGID_00000121968699992879823860000008453896705657043847_">
			<use xlink:href="#SVGID_00000060023626632978635860000018439858774830130304_"  style="overflow:visible;"/>
		</clipPath>
	</g>
	<g>
		<defs>
			<polyline id="SVGID_00000008871035466112705880000009780040073895941769_" points="989.8,677.9 989.8,1377.9 289.8,1377.9 			"/>
		</defs>
		<clipPath id="SVGID_00000031194963397944662970000017830252493048644004_">
			<use xlink:href="#SVGID_00000008871035466112705880000009780040073895941769_"  style="overflow:visible;"/>
		</clipPath>
	</g>
	<g>
		<defs>
			<polyline id="SVGID_00000160169306599331961560000012967848905835342984_" points="1042.6,677.9 1042.6,1377.9 342.6,1377.9 			
				"/>
		</defs>
		<clipPath id="SVGID_00000087386305908152288210000004985715109654522775_">
			<use xlink:href="#SVGID_00000160169306599331961560000012967848905835342984_"  style="overflow:visible;"/>
		</clipPath>
	</g>
	<g>
		<defs>
			<polyline id="SVGID_00000080909761390569955670000011821471490974399385_" points="1057.2,677.9 1057.2,1377.9 357.2,1377.9 			
				"/>
		</defs>
		<clipPath id="SVGID_00000047048047057208777170000011067643060699114935_">
			<use xlink:href="#SVGID_00000080909761390569955670000011821471490974399385_"  style="overflow:visible;"/>
		</clipPath>
	</g>
	<g>
		<defs>
			<polyline id="SVGID_00000152973984291859382300000005855126763360205749_" points="1087.5,677.9 1087.5,1377.9 387.5,1377.9 			
				"/>
		</defs>
		<clipPath id="SVGID_00000031919543980699950510000004953172768562931115_">
			<use xlink:href="#SVGID_00000152973984291859382300000005855126763360205749_"  style="overflow:visible;"/>
		</clipPath>
	</g>
	<g>
		<defs>
			<polyline id="SVGID_00000003102904763372369760000011843138503824873105_" points="1107.5,677.9 1107.5,1377.9 407.5,1377.9 			
				"/>
		</defs>
		<clipPath id="SVGID_00000046334236069000219670000011049893708783738005_">
			<use xlink:href="#SVGID_00000003102904763372369760000011843138503824873105_"  style="overflow:visible;"/>
		</clipPath>
	</g>
	<g>
		<defs>
			<polyline id="SVGID_00000064318057959679527690000002888862457967408561_" points="1125,677.9 1125,1377.9 425,1377.9 			"/>
		</defs>
		<clipPath id="SVGID_00000155826321901085961960000004583552259388659378_">
			<use xlink:href="#SVGID_00000064318057959679527690000002888862457967408561_"  style="overflow:visible;"/>
		</clipPath>
	</g>
</g>
</svg>
