<?xml version="1.0" encoding="utf-8"?>
<!-- Generator: Adobe Illustrator 27.2.0, SVG Export Plug-In . SVG Version: 6.00 Build 0)  -->
<svg version="1.1" id="Calque_1" xmlns="http://www.w3.org/2000/svg" xmlns:xlink="http://www.w3.org/1999/xlink" x="0px" y="0px"
	 viewBox="0 -20 700 700" style="enable-background:new 0 0 700 700;" xml:space="preserve">
<symbol  id="a" viewBox="-9.1 -14.5 18.2 28.9">
	<path d="M1.7-14.5v6.4h7.4v5.1H1.7v9.6c0,1,0.2,1.7,0.6,2.1c0.4,0.4,1.2,0.5,2.5,0.5h3.7v5.1H2.3c-2.8,0-4.9-0.6-6-1.8
		c-1.2-1.2-1.8-3.2-1.8-6v-9.6h-3.6v-5.1h3.6v-6.4L1.7-14.5z"/>
</symbol>
<g>
	<path d="M527.9,257.1C527.9,257.1,527.9,257.1,527.9,257.1c23.6-10.7,37.5-36.5,32.5-62.7c-5-26.3-27.1-45.3-53-46.8L486.7,37.3
		c-2.8-15.4-18.7-23.3-29.6-20.2c-12.2,2.2-20.8,13-20.7,25c0,0.1,0,0.1-0.1,0.2c-26.9,66.2-76.2,90.6-120,112l-29.8,5.6
		c5.4-5.9,8.5-13.6,8.5-22l0-85.7c0-18.4-15-33.3-33.3-33.3l-139.9,0c-18.4,0-33.4,15-33.4,33.3v85.7c0,18.4,15,33.3,33.4,33.3h68.5
		l7.1,5.4l-10.8,2c-24.8,4.7-41.1,28.7-36.6,53.4l0.5,2.7l0,0l-14.5,2.7c-10.7,2-17.7,12.3-15.7,22.9l6.7,35.8
		c1.8,10.7,12.3,17.8,22.8,15.7l14.6-2.7c0,0,0,0,0,0c2.5,11.6,9.2,21.8,19,28.5c0.8,0.5,1.6,1.1,2.5,1.5c-6.8,11.6-7.6,14-9.6,15.7
		l-0.1-0.7c-2.3-12-13.9-19.9-26-17.7l-43.1,9.3c-12.5,2.5-19.8,14.3-17.6,25.8l28.9,153.9c2.1,11.1,11.7,18,21.6,18
		c4.5,0,4.9-0.7,47.5-9.8c10.5-2,18-11.3,18-21.7c4.6,2.4,9.9,3.6,15.3,3.6c1.5,0,3.9-0.1,6.4-0.6l42.7-8c5.3,5.2,12.5,8.2,20,8.2
		c4.3,0,2.2-0.1,59.2-10.6c7.4-1.4,13.9-5.6,18.2-11.9c3.7-5.4,5.4-11.8,4.8-18.3l8-1.5c7.4-1.4,13.8-5.6,17.9-11.7
		c4.2-6.2,5.8-13.6,4.4-21c-1.2-6.7-4.8-12.3-9.7-16.5c3.8-3.8,7.2-13.1,5.5-22.4c-1.4-7.5-5.5-13.7-11.3-17.7
		c4-6.1,5.5-13.4,4.2-20.7c-1.6-8.3-6.8-15.1-13.7-19.1c3.6-6.6,4.2-14.1,2.5-20.3c39.6,5.1,81.5,16.9,120,57.6c0,0,0,0.1,0.1,0.1
		c0,0,0,0,0,0c4.4,11.9,17.1,18.3,28.4,15.9c14-2.6,22.9-15.9,20.2-29.6L527.9,257.1z M246.9,80.6c8.2,0,14.9,6.7,14.9,15
		c0,8.2-6.6,14.9-14.9,14.9c-8.2,0-14.9-6.6-14.9-14.9C232,87.3,238.7,80.6,246.9,80.6z M136.5,110.4c-8.2,0-14.9-6.6-14.9-14.9
		c0-8.2,6.7-15,14.9-15c8.2,0,14.9,6.7,14.9,15C151.3,103.8,144.7,110.4,136.5,110.4z M191.7,110.4c-8.2,0-15-6.6-15-14.9
		c0-8.2,6.7-15,15-15c8.2,0,14.9,6.7,14.9,15C206.6,103.8,199.9,110.4,191.7,110.4z M291.9,498.1c-5.8,1.1-11.2-2.6-12.9-7.5
		c-5-14.6-23.7-69.1-22.5-65.6c0.1-0.1,0.2-0.2,0.3-0.2c19.7-14.8,18.5-43.4,10.7-67.6c0.8-0.2,14.4-2.9,17.3-5.7
		c2.7,5.3,7.6,9.8,11,11.5c-3.2,5.7-4,12.5-2.9,18.5c1,5.4,3.6,10.5,7.8,14.7c-4.8,3.6-9.7,14.6-7.7,24.9
		c2.5,12.8,12.2,22.7,30.2,22.7c-0.8,3.6-0.8,7.4-0.2,11.3c2.6,13.4,14.3,22.8,27.5,22.8c1.5,0,3-0.2,4.6-0.3
		c-0.2,4.6-3.7,9.3-9.2,10.4C345.1,488.2,288.4,498.8,291.9,498.1L291.9,498.1z M212.4,496.6c-3.1-1.6-6.3-2.7-9.6-3.4l-22.6-120.5
		c5.2-2.4,9.7-6.5,12.7-11.6c0.5-0.8,28.6-49.1,26.8-46c1.6-2.8,4.3-4.8,7.4-5.5c0.8-0.4,17.1-3.3,66.3-12.5l0.6,3.2
		c0.9,4.4,0.8,8.8-0.1,12.9c-0.2,0.9-0.4,1.9-0.7,2.8h-0.1c-5.6,4.4-9.3,10-10.8,16.6v0.2c-8.2,7.7-28.6,9.8-27.8,9.6
		c-5.3,1-8.4,6.9-6.2,11.8c0.4,0.9,1.6,3.8,3.1,8.5c7.9,20.1,7.8,45.6-13.9,53c-4.5,1.4-7.1,6-5.7,10.5c1,3.7,4.4,6.1,8.1,6.1
		c0.4,0,0.9,0,1.3-0.1l20.3,59.2l-37.2,7.1C219.9,499.3,215.8,498.5,212.4,496.6L212.4,496.6z M193.1,323.6
		c-6.3-4.3-10.6-10.9-12-18.4l-14.4-76.3c-2.9-15.6,7.4-30.6,23-33.5l25.8-4.8L237,207c10.2,8.1,25.2,0.5,25.2-12.4v-12.9l49.8-9.4
		l25,132.8l-24.1,4.5c-0.8-4.2,0.6,2.8-3.2-16.4V293c-1.4-8.4-9.9-14.5-18.7-12.8c-72.1,13.6-67.1,12.5-68.2,12.9
		c-7.6,1.9-14.1,6.7-18,13.4l-10.4,17.9C194,324.2,193.6,324,193.1,323.6L193.1,323.6z M361.6,357.4c5-1.2,11.6,2.2,12.8,8.8
		c1.1,6.1-2.8,11.8-8.8,12.8c-102.5,19.3,16.4-3.1-43.8,8.2c-5.4,0.9-11.1-2.6-12.4-8.8c-1.1-6,2.8-11.7,8.8-12.8
		C319,365.4,363.7,357,361.6,357.4z M381.6,404.5c1,5.8-2.6,11.6-8.8,12.8c0.8-0.2-7.5,1.3-50.4,9.4c-6.1,1.1-11.8-2.9-12.8-8.8
		c-1.1-6.1,3-11.8,8.8-12.8c0.8-0.2,53.8-10.1,50.4-9.4C374.1,394.5,380.4,398.2,381.6,404.5L381.6,404.5z M352.6,460.8h-0.2
		c-5.9,1-11.6-2.9-12.7-8.8c-1.1-6,2.8-11.6,8.7-12.8c0.8-0.2,26.2-4.9,24.6-4.6c4.9-1.2,11.6,2.2,12.8,8.8
		c1.3,6.2-3.1,11.8-8.8,12.8C376.1,456.4,351,461.1,352.6,460.8L352.6,460.8z M363.7,328.5c1.1,6.1-2.8,11.7-8.5,12.8
		c-0.1,0.1-0.2,0.1-0.3,0.1c-82.9,15.5-10.7,2-43.4,8.2c-13.4,2.4-18.7-16.8-4.8-21.4c0.3-0.1,44.4-8.4,44.1-8.3
		C357.9,318.9,362.7,323.3,363.7,328.5L363.7,328.5z M363.3,304.6c-3-1.2-6.1-1.9-9.4-2l-25.4-135.4c38.3-18.7,83.1-42.4,112.6-95.6
		l52.6,280.5C450.3,316,403.7,308.5,363.3,304.6L363.3,304.6z M543.7,197.6c3.1,16.9-4.6,33.5-18.7,41.9l-14-74.4
		C527.3,167.9,540.7,181,543.7,197.6z M157.7,517.2c-7,0-12.7-5.6-12.7-12.7s5.7-12.7,12.7-12.7c7.1,0,12.8,5.6,12.8,12.7
		S164.8,517.2,157.7,517.2z"/>
	<path d="M601.6,176.6l-24.5,4.6c-4.6,0.9-7.7,5.3-6.8,9.9c0.9,4.6,5.3,7.7,9.9,6.8l24.5-4.6c4.6-0.9,7.7-5.3,6.8-9.9
		C610.6,178.8,606.2,175.7,601.6,176.6z"/>
	<path d="M566.5,160.8l18.9-16.2c3.6-3.1,4-8.4,0.9-12c-3.1-3.6-8.4-4-12-0.9l-18.9,16.2c-3.6,3.1-4,8.4-0.9,12
		C557.6,163.5,563,163.9,566.5,160.8z"/>
	<path d="M525.2,140.7c4.4,1.5,9.3-0.8,10.8-5.2l8.2-23.5c1.6-4.4-0.8-9.3-5.2-10.8c-4.4-1.6-9.3,0.8-10.8,5.2l-8.2,23.5
		C518.5,134.3,520.8,139.2,525.2,140.7L525.2,140.7z"/>
	<path d="M561.2,256.3c-3.1-3.6-8.4-4-12-0.9c-3.6,3.1-4,8.4-0.9,12l16.2,18.9c3.1,3.6,8.4,4,12,0.9c3.6-3.1,4-8.4,0.9-12
		L561.2,256.3z"/>
	<path d="M602.7,229.1l-23.5-8.3c-4.4-1.6-9.3,0.8-10.8,5.2c-1.6,4.4,0.8,9.3,5.2,10.8l23.5,8.2c4.4,1.5,9.3-0.7,10.8-5.2
		C609.5,235.5,607.1,230.7,602.7,229.1L602.7,229.1z"/>
	<g>
		<defs>
			<polyline id="SVGID_1_" points="895.9,683.5 895.9,1383.5 195.9,1383.5 			"/>
		</defs>
		<clipPath id="SVGID_00000026154668800269470070000012090392855568374450_">
			<use xlink:href="#SVGID_1_"  style="overflow:visible;"/>
		</clipPath>
	</g>
	<g>
		<defs>
			<polyline id="SVGID_00000091721131257271999130000001471514164776669593_" points="1069.7,683.5 1069.7,1383.5 369.7,1383.5 			
				"/>
		</defs>
		<clipPath id="SVGID_00000179617451908834666260000010678456549106084258_">
			<use xlink:href="#SVGID_00000091721131257271999130000001471514164776669593_"  style="overflow:visible;"/>
		</clipPath>
	</g>
	<g>
		<defs>
			<polyline id="SVGID_00000147178505315067774940000002279002285129932430_" points="1155.9,683.5 1155.9,1383.5 455.9,1383.5 			
				"/>
		</defs>
		<clipPath id="SVGID_00000059305722970310066970000015702149587108056707_">
			<use xlink:href="#SVGID_00000147178505315067774940000002279002285129932430_"  style="overflow:visible;"/>
		</clipPath>
	</g>
	<g>
		<defs>
			<polyline id="SVGID_00000049180888110219758300000016339376294204893114_" points="1194.4,683.5 1194.4,1383.5 494.4,1383.5 			
				"/>
		</defs>
		<clipPath id="SVGID_00000137101323009615403790000010436409200275788711_">
			<use xlink:href="#SVGID_00000049180888110219758300000016339376294204893114_"  style="overflow:visible;"/>
		</clipPath>
	</g>
	<g>
		<defs>
			<polyline id="SVGID_00000166660871088898164340000013138690096221923222_" points="1222.2,683.5 1222.2,1383.5 522.2,1383.5 			
				"/>
		</defs>
		<clipPath id="SVGID_00000060745095177627570010000001284949840681712565_">
			<use xlink:href="#SVGID_00000166660871088898164340000013138690096221923222_"  style="overflow:visible;"/>
		</clipPath>
	</g>
	<g>
		<defs>
			<polyline id="SVGID_00000006689547463569374250000013669296393748440195_" points="893.8,724.7 893.8,1424.7 193.8,1424.7 			"/>
		</defs>
		<clipPath id="SVGID_00000113332546839458384850000010785862836863524747_">
			<use xlink:href="#SVGID_00000006689547463569374250000013669296393748440195_"  style="overflow:visible;"/>
		</clipPath>
	</g>
	<g>
		<defs>
			<rect id="SVGID_00000012452076855611565320000016393974718657156993_" x="565.9" y="724.7" width="700" height="700"/>
		</defs>
		<clipPath id="SVGID_00000083051427440996740350000009032976170072113598_">
			<use xlink:href="#SVGID_00000012452076855611565320000016393974718657156993_"  style="overflow:visible;"/>
		</clipPath>
		<g style="clip-path:url(#SVGID_00000083051427440996740350000009032976170072113598_);">
			
				<use xlink:href="#a"  width="18.2" height="28.9" x="-9.1" y="-14.5" transform="matrix(1 0 0 1 575.5854 710.2542)" style="overflow:visible;"/>
		</g>
	</g>
</g>
</svg>
